G75*
G70*
%OFA0B0*%
%FSLAX24Y24*%
%IPPOS*%
%LPD*%
%AMOC8*
5,1,8,0,0,1.08239X$1,22.5*
%
%ADD10C,0.0000*%
%ADD11R,0.0400X0.0120*%
%ADD12R,0.0120X0.0400*%
%ADD13R,0.0394X0.0433*%
%ADD14R,0.0433X0.0394*%
%ADD15R,0.0520X0.0520*%
%ADD16C,0.0520*%
%ADD17R,0.0512X0.0591*%
%ADD18R,0.0512X0.0630*%
%ADD19R,0.0984X0.0197*%
%ADD20R,0.0984X0.0787*%
%ADD21R,0.0551X0.0394*%
%ADD22OC8,0.0600*%
%ADD23R,0.0315X0.0669*%
%ADD24R,0.0472X0.0551*%
%ADD25C,0.0160*%
%ADD26C,0.0120*%
%ADD27C,0.0080*%
%ADD28C,0.0310*%
D10*
X000514Y000897D02*
X000514Y007967D01*
X021506Y007967D01*
X021506Y000897D01*
X000514Y000897D01*
X002297Y002988D02*
X002299Y003014D01*
X002305Y003040D01*
X002315Y003065D01*
X002328Y003088D01*
X002344Y003108D01*
X002364Y003126D01*
X002386Y003141D01*
X002409Y003153D01*
X002435Y003161D01*
X002461Y003165D01*
X002487Y003165D01*
X002513Y003161D01*
X002539Y003153D01*
X002563Y003141D01*
X002584Y003126D01*
X002604Y003108D01*
X002620Y003088D01*
X002633Y003065D01*
X002643Y003040D01*
X002649Y003014D01*
X002651Y002988D01*
X002649Y002962D01*
X002643Y002936D01*
X002633Y002911D01*
X002620Y002888D01*
X002604Y002868D01*
X002584Y002850D01*
X002562Y002835D01*
X002539Y002823D01*
X002513Y002815D01*
X002487Y002811D01*
X002461Y002811D01*
X002435Y002815D01*
X002409Y002823D01*
X002385Y002835D01*
X002364Y002850D01*
X002344Y002868D01*
X002328Y002888D01*
X002315Y002911D01*
X002305Y002936D01*
X002299Y002962D01*
X002297Y002988D01*
X002297Y004366D02*
X002299Y004392D01*
X002305Y004418D01*
X002315Y004443D01*
X002328Y004466D01*
X002344Y004486D01*
X002364Y004504D01*
X002386Y004519D01*
X002409Y004531D01*
X002435Y004539D01*
X002461Y004543D01*
X002487Y004543D01*
X002513Y004539D01*
X002539Y004531D01*
X002563Y004519D01*
X002584Y004504D01*
X002604Y004486D01*
X002620Y004466D01*
X002633Y004443D01*
X002643Y004418D01*
X002649Y004392D01*
X002651Y004366D01*
X002649Y004340D01*
X002643Y004314D01*
X002633Y004289D01*
X002620Y004266D01*
X002604Y004246D01*
X002584Y004228D01*
X002562Y004213D01*
X002539Y004201D01*
X002513Y004193D01*
X002487Y004189D01*
X002461Y004189D01*
X002435Y004193D01*
X002409Y004201D01*
X002385Y004213D01*
X002364Y004228D01*
X002344Y004246D01*
X002328Y004266D01*
X002315Y004289D01*
X002305Y004314D01*
X002299Y004340D01*
X002297Y004366D01*
D11*
G36*
X012752Y004106D02*
X012471Y003825D01*
X012386Y003910D01*
X012667Y004191D01*
X012752Y004106D01*
G37*
G36*
X012894Y003965D02*
X012613Y003684D01*
X012528Y003769D01*
X012809Y004050D01*
X012894Y003965D01*
G37*
G36*
X013035Y003823D02*
X012754Y003542D01*
X012669Y003627D01*
X012950Y003908D01*
X013035Y003823D01*
G37*
G36*
X013177Y003682D02*
X012896Y003401D01*
X012811Y003486D01*
X013092Y003767D01*
X013177Y003682D01*
G37*
G36*
X013318Y003540D02*
X013037Y003259D01*
X012952Y003344D01*
X013233Y003625D01*
X013318Y003540D01*
G37*
G36*
X013460Y003399D02*
X013179Y003118D01*
X013094Y003203D01*
X013375Y003484D01*
X013460Y003399D01*
G37*
G36*
X013601Y003258D02*
X013320Y002977D01*
X013235Y003062D01*
X013516Y003343D01*
X013601Y003258D01*
G37*
G36*
X013742Y003116D02*
X013461Y002835D01*
X013376Y002920D01*
X013657Y003201D01*
X013742Y003116D01*
G37*
G36*
X013884Y002975D02*
X013603Y002694D01*
X013518Y002779D01*
X013799Y003060D01*
X013884Y002975D01*
G37*
G36*
X014025Y002833D02*
X013744Y002552D01*
X013659Y002637D01*
X013940Y002918D01*
X014025Y002833D01*
G37*
G36*
X014167Y002692D02*
X013886Y002411D01*
X013801Y002496D01*
X014082Y002777D01*
X014167Y002692D01*
G37*
G36*
X014308Y002550D02*
X014027Y002269D01*
X013942Y002354D01*
X014223Y002635D01*
X014308Y002550D01*
G37*
G36*
X016642Y004884D02*
X016361Y004603D01*
X016276Y004688D01*
X016557Y004969D01*
X016642Y004884D01*
G37*
G36*
X016500Y005025D02*
X016219Y004744D01*
X016134Y004829D01*
X016415Y005110D01*
X016500Y005025D01*
G37*
G36*
X016359Y005167D02*
X016078Y004886D01*
X015993Y004971D01*
X016274Y005252D01*
X016359Y005167D01*
G37*
G36*
X016217Y005308D02*
X015936Y005027D01*
X015851Y005112D01*
X016132Y005393D01*
X016217Y005308D01*
G37*
G36*
X016076Y005450D02*
X015795Y005169D01*
X015710Y005254D01*
X015991Y005535D01*
X016076Y005450D01*
G37*
G36*
X015934Y005591D02*
X015653Y005310D01*
X015568Y005395D01*
X015849Y005676D01*
X015934Y005591D01*
G37*
G36*
X015793Y005732D02*
X015512Y005451D01*
X015427Y005536D01*
X015708Y005817D01*
X015793Y005732D01*
G37*
G36*
X015652Y005874D02*
X015371Y005593D01*
X015286Y005678D01*
X015567Y005959D01*
X015652Y005874D01*
G37*
G36*
X015510Y006015D02*
X015229Y005734D01*
X015144Y005819D01*
X015425Y006100D01*
X015510Y006015D01*
G37*
G36*
X015369Y006157D02*
X015088Y005876D01*
X015003Y005961D01*
X015284Y006242D01*
X015369Y006157D01*
G37*
G36*
X015227Y006298D02*
X014946Y006017D01*
X014861Y006102D01*
X015142Y006383D01*
X015227Y006298D01*
G37*
G36*
X015086Y006440D02*
X014805Y006159D01*
X014720Y006244D01*
X015001Y006525D01*
X015086Y006440D01*
G37*
D12*
G36*
X014308Y006244D02*
X014223Y006159D01*
X013942Y006440D01*
X014027Y006525D01*
X014308Y006244D01*
G37*
G36*
X014167Y006102D02*
X014082Y006017D01*
X013801Y006298D01*
X013886Y006383D01*
X014167Y006102D01*
G37*
G36*
X014025Y005961D02*
X013940Y005876D01*
X013659Y006157D01*
X013744Y006242D01*
X014025Y005961D01*
G37*
G36*
X013884Y005819D02*
X013799Y005734D01*
X013518Y006015D01*
X013603Y006100D01*
X013884Y005819D01*
G37*
G36*
X013742Y005678D02*
X013657Y005593D01*
X013376Y005874D01*
X013461Y005959D01*
X013742Y005678D01*
G37*
G36*
X013601Y005536D02*
X013516Y005451D01*
X013235Y005732D01*
X013320Y005817D01*
X013601Y005536D01*
G37*
G36*
X013460Y005395D02*
X013375Y005310D01*
X013094Y005591D01*
X013179Y005676D01*
X013460Y005395D01*
G37*
G36*
X013318Y005254D02*
X013233Y005169D01*
X012952Y005450D01*
X013037Y005535D01*
X013318Y005254D01*
G37*
G36*
X013177Y005112D02*
X013092Y005027D01*
X012811Y005308D01*
X012896Y005393D01*
X013177Y005112D01*
G37*
G36*
X013035Y004971D02*
X012950Y004886D01*
X012669Y005167D01*
X012754Y005252D01*
X013035Y004971D01*
G37*
G36*
X012894Y004829D02*
X012809Y004744D01*
X012528Y005025D01*
X012613Y005110D01*
X012894Y004829D01*
G37*
G36*
X012752Y004688D02*
X012667Y004603D01*
X012386Y004884D01*
X012471Y004969D01*
X012752Y004688D01*
G37*
G36*
X016076Y003344D02*
X015991Y003259D01*
X015710Y003540D01*
X015795Y003625D01*
X016076Y003344D01*
G37*
G36*
X016217Y003486D02*
X016132Y003401D01*
X015851Y003682D01*
X015936Y003767D01*
X016217Y003486D01*
G37*
G36*
X015934Y003203D02*
X015849Y003118D01*
X015568Y003399D01*
X015653Y003484D01*
X015934Y003203D01*
G37*
G36*
X015793Y003062D02*
X015708Y002977D01*
X015427Y003258D01*
X015512Y003343D01*
X015793Y003062D01*
G37*
G36*
X015652Y002920D02*
X015567Y002835D01*
X015286Y003116D01*
X015371Y003201D01*
X015652Y002920D01*
G37*
G36*
X015510Y002779D02*
X015425Y002694D01*
X015144Y002975D01*
X015229Y003060D01*
X015510Y002779D01*
G37*
G36*
X015369Y002637D02*
X015284Y002552D01*
X015003Y002833D01*
X015088Y002918D01*
X015369Y002637D01*
G37*
G36*
X015227Y002496D02*
X015142Y002411D01*
X014861Y002692D01*
X014946Y002777D01*
X015227Y002496D01*
G37*
G36*
X015086Y002354D02*
X015001Y002269D01*
X014720Y002550D01*
X014805Y002635D01*
X015086Y002354D01*
G37*
G36*
X016359Y003627D02*
X016274Y003542D01*
X015993Y003823D01*
X016078Y003908D01*
X016359Y003627D01*
G37*
G36*
X016500Y003769D02*
X016415Y003684D01*
X016134Y003965D01*
X016219Y004050D01*
X016500Y003769D01*
G37*
G36*
X016642Y003910D02*
X016557Y003825D01*
X016276Y004106D01*
X016361Y004191D01*
X016642Y003910D01*
G37*
D13*
X020514Y003662D03*
X020514Y004332D03*
X020514Y005562D03*
X020514Y006232D03*
X010574Y006372D03*
X009774Y006372D03*
X009774Y005702D03*
X010574Y005702D03*
X006634Y005642D03*
X006634Y006312D03*
D14*
X010779Y004937D03*
X011449Y004937D03*
X011449Y004177D03*
X010779Y004177D03*
X010659Y002557D03*
X011329Y002557D03*
G36*
X016050Y002102D02*
X015745Y002407D01*
X016024Y002686D01*
X016329Y002381D01*
X016050Y002102D01*
G37*
G36*
X016524Y001628D02*
X016219Y001933D01*
X016498Y002212D01*
X016803Y001907D01*
X016524Y001628D01*
G37*
X005449Y001857D03*
X004779Y001857D03*
X001809Y006457D03*
X001139Y006457D03*
X014399Y006837D03*
X015069Y006837D03*
D15*
X006014Y001397D03*
D16*
X007014Y001397D03*
X008014Y001397D03*
X009014Y001397D03*
X010014Y001397D03*
X011014Y001397D03*
X012014Y001397D03*
X013014Y001397D03*
X014014Y001397D03*
X015014Y001397D03*
X016014Y001397D03*
X017014Y001397D03*
X018014Y001397D03*
X019014Y001397D03*
X020014Y001397D03*
X021014Y001397D03*
X021014Y007397D03*
X020014Y007397D03*
X019014Y007397D03*
X018014Y007397D03*
X017014Y007397D03*
X016014Y007397D03*
X015014Y007397D03*
X014014Y007397D03*
X013014Y007397D03*
X012014Y007397D03*
X011014Y007397D03*
X010014Y007397D03*
X009014Y007397D03*
X008014Y007397D03*
X007014Y007397D03*
X006014Y007397D03*
D17*
X005408Y005397D03*
X004660Y005397D03*
D18*
X018561Y005145D03*
X019467Y005145D03*
X019467Y003649D03*
X018561Y003649D03*
D19*
X003458Y003677D03*
X003458Y003992D03*
X003458Y004307D03*
X003458Y003362D03*
X003458Y003047D03*
D20*
X003458Y001905D03*
X001293Y001905D03*
X001293Y005449D03*
X003458Y005449D03*
D21*
X007581Y005737D03*
X008447Y005363D03*
X008447Y006111D03*
D22*
X008014Y003897D03*
X009014Y003897D03*
X007014Y003897D03*
X006014Y003897D03*
X005014Y003897D03*
X005014Y002897D03*
X006014Y002897D03*
X007014Y002897D03*
X008014Y002897D03*
X009014Y002897D03*
D23*
X018525Y002617D03*
X019863Y002617D03*
X005003Y007257D03*
X003665Y007257D03*
D24*
X002405Y007337D03*
X001223Y007337D03*
D25*
X004660Y005397D02*
X004660Y005058D01*
X003909Y004307D01*
X003458Y004307D01*
X005408Y005397D02*
X005508Y005297D01*
X006289Y005297D01*
X006634Y005642D01*
X007336Y005642D01*
X007581Y005737D01*
X007574Y005744D02*
X007574Y006537D01*
X008394Y006164D02*
X008447Y006111D01*
X008940Y006111D01*
X009194Y005857D01*
X009034Y005697D01*
X009034Y005397D01*
X009354Y005697D02*
X009769Y005697D01*
X009774Y005702D01*
X009705Y005771D01*
X009774Y005702D02*
X010574Y005702D01*
X010609Y005737D01*
X011618Y005737D01*
X012014Y006133D01*
X012014Y007397D01*
X009354Y005697D02*
X009194Y005857D01*
X011618Y005737D02*
X012278Y005077D01*
X006634Y005642D02*
X006569Y005577D01*
X006054Y003897D02*
X006514Y003437D01*
X006514Y001897D01*
X007014Y001397D01*
D26*
X007409Y001253D02*
X007619Y001253D01*
X007594Y001313D02*
X007658Y001159D01*
X007660Y001157D01*
X007368Y001157D01*
X007370Y001159D01*
X007434Y001313D01*
X007434Y001481D01*
X007370Y001635D01*
X007252Y001753D01*
X007098Y001817D01*
X006933Y001817D01*
X006754Y001996D01*
X006754Y002507D01*
X006823Y002437D01*
X006871Y002437D01*
X007234Y002074D01*
X007351Y001957D01*
X009631Y001957D01*
X009797Y001957D01*
X009842Y002002D01*
X009937Y002002D01*
X010052Y002050D01*
X010141Y002139D01*
X010189Y002254D01*
X010189Y002380D01*
X010141Y002495D01*
X010052Y002584D01*
X009937Y002632D01*
X009811Y002632D01*
X009696Y002584D01*
X009607Y002495D01*
X009559Y002380D01*
X009559Y002357D01*
X007517Y002357D01*
X007321Y002553D01*
X007474Y002706D01*
X007474Y003088D01*
X007364Y003197D01*
X007664Y003197D01*
X007554Y003088D01*
X007554Y002706D01*
X007823Y002437D01*
X008205Y002437D01*
X008474Y002706D01*
X008474Y003088D01*
X008364Y003197D01*
X008664Y003197D01*
X008554Y003088D01*
X008554Y002706D01*
X008823Y002437D01*
X009205Y002437D01*
X009474Y002706D01*
X009474Y003088D01*
X009364Y003197D01*
X009391Y003197D01*
X009557Y003197D01*
X009897Y003537D01*
X010014Y003654D01*
X010014Y004011D01*
X010041Y004039D01*
X010089Y004154D01*
X010089Y004159D01*
X010114Y004134D01*
X010231Y004017D01*
X010403Y004017D01*
X010403Y003914D01*
X010497Y003820D01*
X011062Y003820D01*
X011114Y003872D01*
X011166Y003820D01*
X011731Y003820D01*
X011825Y003914D01*
X011825Y004065D01*
X011937Y004177D01*
X012054Y004294D01*
X012054Y004614D01*
X012092Y004630D01*
X012181Y004719D01*
X012223Y004821D01*
X012226Y004819D01*
X012349Y004695D01*
X012349Y004690D01*
X012153Y004690D01*
X012218Y004809D02*
X012235Y004809D01*
X012349Y004690D02*
X012478Y004562D01*
X012478Y004562D01*
X012688Y004352D01*
X012602Y004352D01*
X012414Y004164D01*
X012555Y004022D01*
X012414Y004163D01*
X012226Y003975D01*
X012226Y003843D01*
X012315Y003754D01*
X012367Y003806D01*
X012367Y003806D01*
X012298Y003737D01*
X012139Y003737D01*
X012072Y003804D01*
X011957Y003852D01*
X011831Y003852D01*
X011716Y003804D01*
X011627Y003715D01*
X011579Y003600D01*
X011579Y003474D01*
X011627Y003359D01*
X011679Y003307D01*
X011667Y003295D01*
X011619Y003180D01*
X011619Y003054D01*
X011667Y002939D01*
X011756Y002850D01*
X011871Y002802D01*
X011997Y002802D01*
X012104Y002846D01*
X012107Y002839D01*
X012196Y002750D01*
X012311Y002702D01*
X012339Y002702D01*
X012339Y002674D01*
X012363Y002617D01*
X011705Y002617D01*
X011705Y002820D01*
X011611Y002914D01*
X011046Y002914D01*
X010994Y002862D01*
X010942Y002914D01*
X010698Y002914D01*
X010698Y002596D01*
X010621Y002596D01*
X010621Y002914D01*
X010377Y002914D01*
X010283Y002820D01*
X010283Y002595D01*
X010621Y002595D01*
X010621Y002519D01*
X010283Y002519D01*
X010283Y002294D01*
X010377Y002200D01*
X010621Y002200D01*
X010621Y002518D01*
X010698Y002518D01*
X010698Y002200D01*
X010942Y002200D01*
X010994Y002252D01*
X011046Y002200D01*
X011611Y002200D01*
X011628Y002217D01*
X011631Y002217D01*
X011411Y001997D01*
X010771Y001997D01*
X010654Y001880D01*
X010654Y001880D01*
X010511Y001737D01*
X010268Y001737D01*
X010252Y001753D01*
X010098Y001817D01*
X009930Y001817D01*
X009776Y001753D01*
X009658Y001635D01*
X009594Y001481D01*
X009594Y001313D01*
X009658Y001159D01*
X009660Y001157D01*
X009368Y001157D01*
X009370Y001159D01*
X009434Y001313D01*
X009434Y001481D01*
X009370Y001635D01*
X009252Y001753D01*
X009098Y001817D01*
X008930Y001817D01*
X008776Y001753D01*
X008658Y001635D01*
X008594Y001481D01*
X008594Y001313D01*
X008658Y001159D01*
X008660Y001157D01*
X008368Y001157D01*
X008370Y001159D01*
X008434Y001313D01*
X008434Y001377D01*
X008034Y001377D01*
X008034Y001417D01*
X007994Y001417D01*
X007994Y001817D01*
X007930Y001817D01*
X007776Y001753D01*
X007658Y001635D01*
X007594Y001481D01*
X007594Y001417D01*
X007994Y001417D01*
X007994Y001377D01*
X007594Y001377D01*
X007594Y001313D01*
X007594Y001371D02*
X007434Y001371D01*
X007430Y001490D02*
X007598Y001490D01*
X007647Y001608D02*
X007381Y001608D01*
X007278Y001727D02*
X007750Y001727D01*
X007994Y001727D02*
X008034Y001727D01*
X008034Y001817D02*
X008034Y001417D01*
X008434Y001417D01*
X008434Y001481D01*
X008370Y001635D01*
X008252Y001753D01*
X008098Y001817D01*
X008034Y001817D01*
X008278Y001727D02*
X008750Y001727D01*
X008647Y001608D02*
X008381Y001608D01*
X008430Y001490D02*
X008598Y001490D01*
X008594Y001371D02*
X008434Y001371D01*
X008409Y001253D02*
X008619Y001253D01*
X008034Y001490D02*
X007994Y001490D01*
X007994Y001608D02*
X008034Y001608D01*
X007344Y001964D02*
X006786Y001964D01*
X006754Y002082D02*
X007226Y002082D01*
X007107Y002201D02*
X006754Y002201D01*
X006754Y002320D02*
X006989Y002320D01*
X006822Y002438D02*
X006754Y002438D01*
X007324Y002557D02*
X007704Y002557D01*
X007585Y002675D02*
X007443Y002675D01*
X007474Y002794D02*
X007554Y002794D01*
X007554Y002912D02*
X007474Y002912D01*
X007474Y003031D02*
X007554Y003031D01*
X007616Y003149D02*
X007412Y003149D01*
X008412Y003149D02*
X008616Y003149D01*
X008554Y003031D02*
X008474Y003031D01*
X008474Y002912D02*
X008554Y002912D01*
X008554Y002794D02*
X008474Y002794D01*
X008443Y002675D02*
X008585Y002675D01*
X008704Y002557D02*
X008324Y002557D01*
X008206Y002438D02*
X008822Y002438D01*
X009206Y002438D02*
X009583Y002438D01*
X009668Y002557D02*
X009324Y002557D01*
X009443Y002675D02*
X010283Y002675D01*
X010283Y002794D02*
X009474Y002794D01*
X009474Y002912D02*
X010375Y002912D01*
X010621Y002912D02*
X010698Y002912D01*
X010944Y002912D02*
X011044Y002912D01*
X010698Y002794D02*
X010621Y002794D01*
X010621Y002675D02*
X010698Y002675D01*
X010621Y002557D02*
X010080Y002557D01*
X010165Y002438D02*
X010283Y002438D01*
X010283Y002320D02*
X010189Y002320D01*
X010167Y002201D02*
X010376Y002201D01*
X010621Y002201D02*
X010698Y002201D01*
X010698Y002320D02*
X010621Y002320D01*
X010621Y002438D02*
X010698Y002438D01*
X010943Y002201D02*
X011045Y002201D01*
X010738Y001964D02*
X009804Y001964D01*
X010085Y002082D02*
X011497Y002082D01*
X011612Y002201D02*
X011615Y002201D01*
X010620Y001845D02*
X006905Y001845D01*
X006594Y001478D02*
X006434Y001638D01*
X006434Y001417D01*
X006034Y001417D01*
X006034Y001377D01*
X006434Y001377D01*
X006434Y001157D01*
X006660Y001157D01*
X006658Y001159D01*
X006594Y001313D01*
X006594Y001478D01*
X006582Y001490D02*
X006434Y001490D01*
X006434Y001608D02*
X006463Y001608D01*
X005994Y001417D02*
X005994Y001377D01*
X005594Y001377D01*
X005594Y001157D01*
X000894Y001157D01*
X000894Y001352D01*
X001851Y001352D01*
X001945Y001445D01*
X001945Y002365D01*
X001851Y002459D01*
X000894Y002459D01*
X000894Y004895D01*
X001851Y004895D01*
X001945Y004989D01*
X001945Y005909D01*
X001851Y006002D01*
X000894Y006002D01*
X000894Y006100D01*
X001422Y006100D01*
X001474Y006152D01*
X001526Y006100D01*
X001770Y006100D01*
X001770Y006418D01*
X001847Y006418D01*
X001847Y006100D01*
X002091Y006100D01*
X002185Y006194D01*
X002185Y006419D01*
X001847Y006419D01*
X001847Y006495D01*
X002185Y006495D01*
X002185Y006720D01*
X002091Y006814D01*
X001847Y006814D01*
X001847Y006496D01*
X001770Y006496D01*
X001770Y006814D01*
X001526Y006814D01*
X001474Y006762D01*
X001422Y006814D01*
X001339Y006814D01*
X001339Y006901D01*
X001526Y006901D01*
X001620Y006995D01*
X001620Y007679D01*
X001591Y007707D01*
X002037Y007707D01*
X002008Y007679D01*
X002008Y006995D01*
X002102Y006901D01*
X002367Y006901D01*
X003074Y006194D01*
X003191Y006077D01*
X004791Y006077D01*
X005051Y005817D01*
X005034Y005800D01*
X004982Y005852D01*
X004338Y005852D01*
X004244Y005759D01*
X004244Y005035D01*
X004271Y005008D01*
X003828Y004565D01*
X002900Y004565D01*
X002875Y004540D01*
X002845Y004614D01*
X002722Y004737D01*
X002561Y004803D01*
X002387Y004803D01*
X002226Y004737D01*
X002103Y004614D01*
X002037Y004453D01*
X002037Y004279D01*
X002103Y004118D01*
X002226Y003995D01*
X002387Y003929D01*
X002561Y003929D01*
X002722Y003995D01*
X002806Y004080D01*
X002806Y003827D01*
X002806Y003527D01*
X002806Y003274D01*
X002722Y003359D01*
X002561Y003425D01*
X002387Y003425D01*
X002226Y003359D01*
X002103Y003236D01*
X002037Y003075D01*
X002037Y002901D01*
X002103Y002740D01*
X002226Y002617D01*
X002387Y002551D01*
X002561Y002551D01*
X002722Y002617D01*
X002845Y002740D01*
X002875Y002814D01*
X002900Y002789D01*
X003458Y002789D01*
X003458Y003047D01*
X003458Y003047D01*
X003458Y002789D01*
X004017Y002789D01*
X004110Y002882D01*
X004110Y003047D01*
X003459Y003047D01*
X003459Y003047D01*
X004110Y003047D01*
X004110Y003197D01*
X004110Y003477D01*
X004137Y003477D01*
X004597Y003937D01*
X004974Y003937D01*
X004974Y004314D01*
X005237Y004577D01*
X005695Y004577D01*
X005679Y004540D01*
X005679Y004414D01*
X005727Y004299D01*
X005746Y004279D01*
X005554Y004088D01*
X005554Y003706D01*
X005823Y003437D01*
X006175Y003437D01*
X006274Y003338D01*
X006274Y003287D01*
X006205Y003357D01*
X005823Y003357D01*
X005554Y003088D01*
X005554Y002706D01*
X005823Y002437D01*
X006205Y002437D01*
X006274Y002507D01*
X006274Y002057D01*
X005825Y002057D01*
X005825Y002120D01*
X005731Y002214D01*
X005214Y002214D01*
X005214Y002446D01*
X005474Y002706D01*
X005474Y003088D01*
X005205Y003357D01*
X004823Y003357D01*
X004554Y003088D01*
X004554Y002706D01*
X004814Y002446D01*
X004814Y002214D01*
X004497Y002214D01*
X004403Y002120D01*
X004403Y001594D01*
X004497Y001500D01*
X005062Y001500D01*
X005114Y001552D01*
X005166Y001500D01*
X005594Y001500D01*
X005594Y001417D01*
X005994Y001417D01*
X005594Y001371D02*
X004036Y001371D01*
X004017Y001352D02*
X004110Y001445D01*
X004110Y002365D01*
X004017Y002459D01*
X002900Y002459D01*
X002806Y002365D01*
X002806Y001445D01*
X002900Y001352D01*
X004017Y001352D01*
X004110Y001490D02*
X005594Y001490D01*
X005594Y001253D02*
X000894Y001253D01*
X001871Y001371D02*
X002880Y001371D01*
X002806Y001490D02*
X001945Y001490D01*
X001945Y001608D02*
X002806Y001608D01*
X002806Y001727D02*
X001945Y001727D01*
X001945Y001845D02*
X002806Y001845D01*
X002806Y001964D02*
X001945Y001964D01*
X001945Y002082D02*
X002806Y002082D01*
X002806Y002201D02*
X001945Y002201D01*
X001945Y002320D02*
X002806Y002320D01*
X002879Y002438D02*
X001872Y002438D01*
X002373Y002557D02*
X000894Y002557D01*
X000894Y002675D02*
X002169Y002675D01*
X002081Y002794D02*
X000894Y002794D01*
X000894Y002912D02*
X002037Y002912D01*
X002037Y003031D02*
X000894Y003031D01*
X000894Y003149D02*
X002068Y003149D01*
X002136Y003268D02*
X000894Y003268D01*
X000894Y003386D02*
X002294Y003386D01*
X002655Y003386D02*
X002806Y003386D01*
X002806Y003505D02*
X000894Y003505D01*
X000894Y003624D02*
X002806Y003624D01*
X002806Y003742D02*
X000894Y003742D01*
X000894Y003861D02*
X002806Y003861D01*
X002806Y003979D02*
X002682Y003979D01*
X002266Y003979D02*
X000894Y003979D01*
X000894Y004098D02*
X002124Y004098D01*
X002063Y004216D02*
X000894Y004216D01*
X000894Y004335D02*
X002037Y004335D01*
X002037Y004453D02*
X000894Y004453D01*
X000894Y004572D02*
X002086Y004572D01*
X002180Y004690D02*
X000894Y004690D01*
X000894Y004809D02*
X004072Y004809D01*
X004017Y004895D02*
X004110Y004989D01*
X004110Y005909D01*
X004017Y006002D01*
X002900Y006002D01*
X002806Y005909D01*
X002806Y004989D01*
X002900Y004895D01*
X004017Y004895D01*
X004049Y004927D02*
X004190Y004927D01*
X004244Y005046D02*
X004110Y005046D01*
X004110Y005165D02*
X004244Y005165D01*
X004244Y005283D02*
X004110Y005283D01*
X004110Y005402D02*
X004244Y005402D01*
X004244Y005520D02*
X004110Y005520D01*
X004110Y005639D02*
X004244Y005639D01*
X004244Y005757D02*
X004110Y005757D01*
X004110Y005876D02*
X004992Y005876D01*
X004874Y005994D02*
X004025Y005994D01*
X003155Y006113D02*
X002104Y006113D01*
X001847Y006113D02*
X001770Y006113D01*
X001859Y005994D02*
X002892Y005994D01*
X002806Y005876D02*
X001945Y005876D01*
X001945Y005757D02*
X002806Y005757D01*
X002806Y005639D02*
X001945Y005639D01*
X001945Y005520D02*
X002806Y005520D01*
X002806Y005402D02*
X001945Y005402D01*
X001945Y005283D02*
X002806Y005283D01*
X002806Y005165D02*
X001945Y005165D01*
X001945Y005046D02*
X002806Y005046D01*
X002867Y004927D02*
X001884Y004927D01*
X002768Y004690D02*
X003953Y004690D01*
X003835Y004572D02*
X002862Y004572D01*
X004520Y003861D02*
X004974Y003861D01*
X004974Y003857D02*
X004554Y003857D01*
X004554Y003706D01*
X004823Y003437D01*
X004974Y003437D01*
X004974Y003857D01*
X005054Y003857D01*
X005054Y003937D01*
X004974Y003937D01*
X004974Y003857D01*
X005054Y003857D02*
X005054Y003437D01*
X005205Y003437D01*
X005474Y003706D01*
X005474Y003857D01*
X005054Y003857D01*
X005054Y003861D02*
X005554Y003861D01*
X005474Y003937D02*
X005474Y004088D01*
X005205Y004357D01*
X005054Y004357D01*
X005054Y003937D01*
X005474Y003937D01*
X005474Y003979D02*
X005554Y003979D01*
X005564Y004098D02*
X005464Y004098D01*
X005345Y004216D02*
X005683Y004216D01*
X005712Y004335D02*
X005227Y004335D01*
X005113Y004453D02*
X005679Y004453D01*
X005692Y004572D02*
X005232Y004572D01*
X005054Y004335D02*
X004995Y004335D01*
X004974Y004216D02*
X005054Y004216D01*
X005054Y004098D02*
X004974Y004098D01*
X004974Y003979D02*
X005054Y003979D01*
X005054Y003742D02*
X004974Y003742D01*
X004974Y003624D02*
X005054Y003624D01*
X005054Y003505D02*
X004974Y003505D01*
X004756Y003505D02*
X004165Y003505D01*
X004283Y003624D02*
X004637Y003624D01*
X004554Y003742D02*
X004402Y003742D01*
X004110Y003386D02*
X006225Y003386D01*
X005756Y003505D02*
X005272Y003505D01*
X005391Y003624D02*
X005637Y003624D01*
X005554Y003742D02*
X005474Y003742D01*
X005294Y003268D02*
X005734Y003268D01*
X005616Y003149D02*
X005412Y003149D01*
X005474Y003031D02*
X005554Y003031D01*
X005554Y002912D02*
X005474Y002912D01*
X005474Y002794D02*
X005554Y002794D01*
X005585Y002675D02*
X005443Y002675D01*
X005324Y002557D02*
X005704Y002557D01*
X005822Y002438D02*
X005214Y002438D01*
X005214Y002320D02*
X006274Y002320D01*
X006274Y002438D02*
X006206Y002438D01*
X006274Y002201D02*
X005744Y002201D01*
X005825Y002082D02*
X006274Y002082D01*
X007436Y002438D02*
X007822Y002438D01*
X009474Y003031D02*
X011629Y003031D01*
X011613Y002912D02*
X011693Y002912D01*
X011705Y002794D02*
X012152Y002794D01*
X012339Y002675D02*
X011705Y002675D01*
X011619Y003149D02*
X009412Y003149D01*
X009628Y003268D02*
X011656Y003268D01*
X011615Y003386D02*
X009746Y003386D01*
X009865Y003505D02*
X011579Y003505D01*
X011589Y003624D02*
X009983Y003624D01*
X010014Y003742D02*
X011654Y003742D01*
X011772Y003861D02*
X012226Y003861D01*
X012229Y003979D02*
X011825Y003979D01*
X011857Y004098D02*
X012348Y004098D01*
X012479Y004098D02*
X012480Y004098D01*
X012555Y004022D02*
X012555Y004022D01*
X012466Y004216D02*
X011976Y004216D01*
X012054Y004335D02*
X012585Y004335D01*
X012587Y004453D02*
X012054Y004453D01*
X012054Y004572D02*
X012468Y004572D01*
X012569Y004782D02*
X013214Y004137D01*
X013354Y004137D01*
X013834Y004617D01*
X014274Y004617D01*
X014464Y004427D01*
X014554Y004517D01*
X014554Y006357D01*
X014814Y006617D01*
X014849Y006617D01*
X015069Y006837D01*
X015154Y006752D01*
X015154Y006597D01*
X014903Y006346D01*
X014903Y006342D01*
X014438Y006552D02*
X014334Y006448D01*
X014334Y006444D01*
X014297Y006480D01*
X014361Y006480D01*
X014361Y006798D01*
X014438Y006798D01*
X014438Y006552D01*
X014438Y006587D02*
X014361Y006587D01*
X014399Y006616D02*
X014125Y006342D01*
X014309Y006469D02*
X014354Y006469D01*
X014399Y006616D02*
X014399Y006837D01*
X014361Y006824D02*
X013899Y006824D01*
X013909Y006800D02*
X013861Y006915D01*
X013772Y007004D01*
X013657Y007052D01*
X013531Y007052D01*
X013416Y007004D01*
X013327Y006915D01*
X013279Y006800D01*
X013279Y006674D01*
X013293Y006640D01*
X013256Y006624D01*
X013213Y006581D01*
X012869Y006925D01*
X012869Y007002D01*
X012930Y006977D01*
X012994Y006977D01*
X012994Y007377D01*
X012594Y007377D01*
X012594Y007313D01*
X012611Y007272D01*
X012491Y007272D01*
X012401Y007235D01*
X012434Y007313D01*
X012434Y007481D01*
X012370Y007635D01*
X012298Y007707D01*
X012730Y007707D01*
X012658Y007635D01*
X012594Y007481D01*
X012594Y007417D01*
X012994Y007417D01*
X012434Y007417D01*
X012428Y007298D02*
X012600Y007298D01*
X012994Y007298D02*
X013034Y007298D01*
X013034Y007377D02*
X012994Y007377D01*
X012994Y007417D01*
X013034Y007417D02*
X013594Y007417D01*
X013594Y007481D02*
X013594Y007313D01*
X013658Y007159D01*
X013776Y007041D01*
X013930Y006977D01*
X014023Y006977D01*
X014023Y006875D01*
X014361Y006875D01*
X014361Y006799D01*
X014023Y006799D01*
X014023Y006685D01*
X013960Y006685D01*
X013944Y006670D01*
X013909Y006705D01*
X013909Y006800D01*
X013909Y006706D02*
X014023Y006706D01*
X014361Y006706D02*
X014438Y006706D01*
X014438Y006876D02*
X014361Y006876D01*
X014361Y007150D01*
X014370Y007159D01*
X014434Y007313D01*
X014434Y007481D01*
X014370Y007635D01*
X014298Y007707D01*
X014730Y007707D01*
X014658Y007635D01*
X014594Y007481D01*
X014594Y007313D01*
X014644Y007194D01*
X014438Y007194D01*
X014438Y006876D01*
X014438Y006943D02*
X014361Y006943D01*
X014361Y007061D02*
X014438Y007061D01*
X014438Y007180D02*
X014379Y007180D01*
X014428Y007298D02*
X014600Y007298D01*
X014594Y007417D02*
X014434Y007417D01*
X014411Y007535D02*
X014617Y007535D01*
X014677Y007654D02*
X014351Y007654D01*
X013730Y007707D02*
X013658Y007635D01*
X013594Y007481D01*
X013617Y007535D02*
X013411Y007535D01*
X013434Y007481D02*
X013370Y007635D01*
X013298Y007707D01*
X013730Y007707D01*
X013677Y007654D02*
X013351Y007654D01*
X013434Y007481D02*
X013434Y007417D01*
X013034Y007417D01*
X013034Y007377D01*
X013434Y007377D01*
X013434Y007313D01*
X013370Y007159D01*
X013252Y007041D01*
X013098Y006977D01*
X013034Y006977D01*
X013034Y007377D01*
X013034Y007180D02*
X012994Y007180D01*
X012994Y007061D02*
X013034Y007061D01*
X012869Y006943D02*
X013354Y006943D01*
X013289Y006824D02*
X012970Y006824D01*
X013088Y006706D02*
X013279Y006706D01*
X013219Y006587D02*
X013207Y006587D01*
X013834Y006943D02*
X014023Y006943D01*
X013756Y007061D02*
X013272Y007061D01*
X013379Y007180D02*
X013649Y007180D01*
X013600Y007298D02*
X013428Y007298D01*
X012677Y007654D02*
X012351Y007654D01*
X012411Y007535D02*
X012617Y007535D01*
X011730Y007707D02*
X011658Y007635D01*
X011594Y007481D01*
X011594Y007313D01*
X011658Y007159D01*
X011774Y007043D01*
X011774Y006232D01*
X011519Y005977D01*
X010931Y005977D01*
X010931Y005985D01*
X010879Y006037D01*
X010931Y006089D01*
X010931Y006333D01*
X010613Y006333D01*
X010613Y006410D01*
X010931Y006410D01*
X010931Y006654D01*
X010837Y006748D01*
X010612Y006748D01*
X010612Y006410D01*
X010536Y006410D01*
X010536Y006748D01*
X010311Y006748D01*
X010217Y006654D01*
X010217Y006410D01*
X010535Y006410D01*
X010535Y006333D01*
X010217Y006333D01*
X010217Y006089D01*
X010269Y006037D01*
X010217Y005985D01*
X010217Y005942D01*
X010131Y005942D01*
X010131Y005985D01*
X010079Y006037D01*
X010131Y006089D01*
X010131Y006333D01*
X009813Y006333D01*
X009813Y006410D01*
X010131Y006410D01*
X010131Y006654D01*
X010037Y006748D01*
X009812Y006748D01*
X009812Y006410D01*
X009736Y006410D01*
X009736Y006748D01*
X009511Y006748D01*
X009417Y006654D01*
X009417Y006410D01*
X009735Y006410D01*
X009735Y006333D01*
X009417Y006333D01*
X009417Y006089D01*
X009469Y006037D01*
X009417Y005985D01*
X009417Y005973D01*
X009397Y005993D01*
X009330Y006060D01*
X009076Y006314D01*
X008988Y006351D01*
X008892Y006351D01*
X008883Y006351D01*
X008883Y006374D01*
X008789Y006468D01*
X008105Y006468D01*
X008011Y006374D01*
X008011Y006005D01*
X007923Y006094D01*
X007814Y006094D01*
X007814Y006331D01*
X007841Y006359D01*
X007889Y006474D01*
X007889Y006600D01*
X007841Y006715D01*
X007752Y006804D01*
X007637Y006852D01*
X007511Y006852D01*
X007396Y006804D01*
X007307Y006715D01*
X007259Y006600D01*
X007259Y006474D01*
X007307Y006359D01*
X007334Y006331D01*
X007334Y006094D01*
X007239Y006094D01*
X007145Y006000D01*
X007145Y005882D01*
X006991Y005882D01*
X006991Y005925D01*
X006939Y005977D01*
X006991Y006029D01*
X006991Y006273D01*
X006673Y006273D01*
X006673Y006350D01*
X007316Y006350D01*
X007334Y006231D02*
X006991Y006231D01*
X006991Y006350D02*
X006991Y006594D01*
X006897Y006688D01*
X006672Y006688D01*
X006672Y006350D01*
X006596Y006350D01*
X006596Y006688D01*
X006371Y006688D01*
X006277Y006594D01*
X006277Y006350D01*
X006595Y006350D01*
X005854Y006350D01*
X005854Y006262D02*
X005854Y006523D01*
X005854Y006689D01*
X005321Y007222D01*
X005321Y007658D01*
X005272Y007707D01*
X005730Y007707D01*
X005658Y007635D01*
X005594Y007481D01*
X005594Y007417D01*
X005994Y007417D01*
X005321Y007417D01*
X005321Y007298D02*
X005600Y007298D01*
X005594Y007313D02*
X005658Y007159D01*
X005776Y007041D01*
X005930Y006977D01*
X005994Y006977D01*
X005994Y007377D01*
X006034Y007377D01*
X006034Y007417D01*
X006594Y007417D01*
X006594Y007481D02*
X006594Y007313D01*
X006658Y007159D01*
X006776Y007041D01*
X006930Y006977D01*
X007098Y006977D01*
X007252Y007041D01*
X007370Y007159D01*
X007434Y007313D01*
X007434Y007481D01*
X007370Y007635D01*
X007298Y007707D01*
X007730Y007707D01*
X007658Y007635D01*
X007594Y007481D01*
X007594Y007313D01*
X007658Y007159D01*
X007776Y007041D01*
X007930Y006977D01*
X008098Y006977D01*
X008252Y007041D01*
X008370Y007159D01*
X008434Y007313D01*
X008434Y007481D01*
X008370Y007635D01*
X008298Y007707D01*
X008730Y007707D01*
X008658Y007635D01*
X008594Y007481D01*
X008594Y007313D01*
X008658Y007159D01*
X008776Y007041D01*
X008930Y006977D01*
X009098Y006977D01*
X009252Y007041D01*
X009370Y007159D01*
X009434Y007313D01*
X009434Y007481D01*
X009370Y007635D01*
X009298Y007707D01*
X009730Y007707D01*
X009658Y007635D01*
X009594Y007481D01*
X009594Y007313D01*
X009658Y007159D01*
X009776Y007041D01*
X009930Y006977D01*
X010098Y006977D01*
X010252Y007041D01*
X010370Y007159D01*
X010434Y007313D01*
X010434Y007481D01*
X010370Y007635D01*
X010298Y007707D01*
X010730Y007707D01*
X010658Y007635D01*
X010594Y007481D01*
X010594Y007313D01*
X010658Y007159D01*
X010776Y007041D01*
X010930Y006977D01*
X011098Y006977D01*
X011252Y007041D01*
X011370Y007159D01*
X011434Y007313D01*
X011434Y007481D01*
X011370Y007635D01*
X011298Y007707D01*
X011730Y007707D01*
X011677Y007654D02*
X011351Y007654D01*
X011411Y007535D02*
X011617Y007535D01*
X011594Y007417D02*
X011434Y007417D01*
X011428Y007298D02*
X011600Y007298D01*
X011649Y007180D02*
X011379Y007180D01*
X011272Y007061D02*
X011756Y007061D01*
X011774Y006943D02*
X005600Y006943D01*
X005482Y007061D02*
X005756Y007061D01*
X005994Y007061D02*
X006034Y007061D01*
X006034Y006977D02*
X006098Y006977D01*
X006252Y007041D01*
X006370Y007159D01*
X006434Y007313D01*
X006434Y007377D01*
X006034Y007377D01*
X006034Y006977D01*
X006272Y007061D02*
X006756Y007061D01*
X006649Y007180D02*
X006379Y007180D01*
X006428Y007298D02*
X006600Y007298D01*
X006434Y007417D02*
X006434Y007481D01*
X006370Y007635D01*
X006298Y007707D01*
X006730Y007707D01*
X006658Y007635D01*
X006594Y007481D01*
X006617Y007535D02*
X006411Y007535D01*
X006351Y007654D02*
X006677Y007654D01*
X006434Y007417D02*
X006034Y007417D01*
X005994Y007417D02*
X005994Y007377D01*
X005594Y007377D01*
X005594Y007313D01*
X005649Y007180D02*
X005363Y007180D01*
X005994Y007180D02*
X006034Y007180D01*
X006034Y007298D02*
X005994Y007298D01*
X005617Y007535D02*
X005321Y007535D01*
X005321Y007654D02*
X005677Y007654D01*
X004735Y007707D02*
X004686Y007658D01*
X004686Y006856D01*
X004780Y006762D01*
X005215Y006762D01*
X005454Y006523D01*
X005454Y006262D01*
X005387Y006195D01*
X005343Y006090D01*
X004957Y006477D01*
X004791Y006477D01*
X003357Y006477D01*
X002801Y007033D01*
X002801Y007679D01*
X002772Y007707D01*
X003396Y007707D01*
X003347Y007658D01*
X003347Y007276D01*
X003646Y007276D01*
X003646Y007238D01*
X003683Y007238D01*
X003683Y006762D01*
X003888Y006762D01*
X003982Y006856D01*
X003982Y007238D01*
X003684Y007238D01*
X003684Y007276D01*
X003982Y007276D01*
X003982Y007658D01*
X003933Y007707D01*
X004735Y007707D01*
X004686Y007654D02*
X003982Y007654D01*
X003982Y007535D02*
X004686Y007535D01*
X004686Y007417D02*
X003982Y007417D01*
X003982Y007298D02*
X004686Y007298D01*
X004686Y007180D02*
X003982Y007180D01*
X003683Y007180D02*
X003646Y007180D01*
X003646Y007238D02*
X003646Y006762D01*
X003441Y006762D01*
X003347Y006856D01*
X003347Y007238D01*
X003646Y007238D01*
X003347Y007180D02*
X002801Y007180D01*
X002801Y007298D02*
X003347Y007298D01*
X003347Y007417D02*
X002801Y007417D01*
X002801Y007535D02*
X003347Y007535D01*
X003347Y007654D02*
X002801Y007654D01*
X002008Y007654D02*
X001620Y007654D01*
X001620Y007535D02*
X002008Y007535D01*
X002008Y007417D02*
X001620Y007417D01*
X001620Y007298D02*
X002008Y007298D01*
X002008Y007180D02*
X001620Y007180D01*
X001620Y007061D02*
X002008Y007061D01*
X002061Y006943D02*
X001567Y006943D01*
X001339Y006824D02*
X002444Y006824D01*
X002563Y006706D02*
X002185Y006706D01*
X002185Y006587D02*
X002681Y006587D01*
X002800Y006469D02*
X001847Y006469D01*
X001847Y006350D02*
X001770Y006350D01*
X001770Y006231D02*
X001847Y006231D01*
X002185Y006231D02*
X003037Y006231D01*
X002918Y006350D02*
X002185Y006350D01*
X001847Y006587D02*
X001770Y006587D01*
X001770Y006706D02*
X001847Y006706D01*
X002801Y007061D02*
X003347Y007061D01*
X003347Y006943D02*
X002891Y006943D01*
X003010Y006824D02*
X003379Y006824D01*
X003646Y006824D02*
X003683Y006824D01*
X003683Y006943D02*
X003646Y006943D01*
X003646Y007061D02*
X003683Y007061D01*
X003982Y007061D02*
X004686Y007061D01*
X004686Y006943D02*
X003982Y006943D01*
X003950Y006824D02*
X004718Y006824D01*
X005272Y006706D02*
X003128Y006706D01*
X003247Y006587D02*
X005390Y006587D01*
X005454Y006469D02*
X004965Y006469D01*
X005084Y006350D02*
X005454Y006350D01*
X005423Y006231D02*
X005202Y006231D01*
X005321Y006113D02*
X005353Y006113D01*
X005854Y006262D02*
X005921Y006195D01*
X005969Y006080D01*
X005969Y005954D01*
X005921Y005839D01*
X005832Y005750D01*
X005824Y005746D01*
X005824Y005537D01*
X006189Y005537D01*
X006277Y005625D01*
X006277Y005925D01*
X006329Y005977D01*
X006277Y006029D01*
X006277Y006273D01*
X006595Y006273D01*
X006595Y006350D01*
X006673Y006350D02*
X006991Y006350D01*
X006991Y006469D02*
X007261Y006469D01*
X007259Y006587D02*
X006991Y006587D01*
X007303Y006706D02*
X005837Y006706D01*
X005854Y006587D02*
X006277Y006587D01*
X006277Y006469D02*
X005854Y006469D01*
X005885Y006231D02*
X006277Y006231D01*
X006277Y006113D02*
X005955Y006113D01*
X005969Y005994D02*
X006312Y005994D01*
X006277Y005876D02*
X005936Y005876D01*
X005840Y005757D02*
X006277Y005757D01*
X006277Y005639D02*
X005824Y005639D01*
X006492Y005161D02*
X006597Y005266D01*
X006897Y005266D01*
X006991Y005360D01*
X006991Y005402D01*
X007218Y005402D01*
X007217Y005402D02*
X007239Y005380D01*
X007923Y005380D01*
X008011Y005469D01*
X008011Y005401D01*
X008408Y005401D01*
X008408Y005324D01*
X008011Y005324D01*
X008011Y005100D01*
X008105Y005006D01*
X008409Y005006D01*
X008409Y005324D01*
X008486Y005324D01*
X008486Y005006D01*
X008789Y005006D01*
X008883Y005100D01*
X008883Y005119D01*
X008971Y005082D01*
X009059Y005082D01*
X009059Y005054D01*
X009107Y004939D01*
X009149Y004897D01*
X007997Y004897D01*
X007737Y005157D01*
X007571Y005157D01*
X006488Y005157D01*
X006492Y005161D01*
X006492Y005161D01*
X006496Y005165D02*
X008011Y005165D01*
X008011Y005283D02*
X006914Y005283D01*
X006991Y005402D02*
X007217Y005402D01*
X007944Y005402D02*
X008011Y005402D01*
X008409Y005402D02*
X008486Y005402D01*
X008409Y005402D01*
X008409Y005720D01*
X008105Y005720D01*
X008016Y005631D01*
X008016Y005843D01*
X008105Y005754D01*
X008789Y005754D01*
X008804Y005770D01*
X008794Y005745D01*
X008794Y005715D01*
X008789Y005720D01*
X008486Y005720D01*
X008486Y005402D01*
X008486Y005283D02*
X008409Y005283D01*
X008409Y005165D02*
X008486Y005165D01*
X008486Y005046D02*
X008409Y005046D01*
X008065Y005046D02*
X007848Y005046D01*
X007966Y004927D02*
X009118Y004927D01*
X009062Y005046D02*
X008829Y005046D01*
X008486Y005520D02*
X008409Y005520D01*
X008409Y005639D02*
X008486Y005639D01*
X008792Y005757D02*
X008799Y005757D01*
X009396Y005994D02*
X009426Y005994D01*
X009417Y006113D02*
X009277Y006113D01*
X009159Y006231D02*
X009417Y006231D01*
X009735Y006350D02*
X008990Y006350D01*
X009417Y006469D02*
X007887Y006469D01*
X007832Y006350D02*
X008011Y006350D01*
X008011Y006231D02*
X007814Y006231D01*
X007814Y006113D02*
X008011Y006113D01*
X007334Y006113D02*
X006991Y006113D01*
X006956Y005994D02*
X007145Y005994D01*
X006672Y006469D02*
X006596Y006469D01*
X006596Y006587D02*
X006672Y006587D01*
X007444Y006824D02*
X005719Y006824D01*
X007272Y007061D02*
X007756Y007061D01*
X007649Y007180D02*
X007379Y007180D01*
X007428Y007298D02*
X007600Y007298D01*
X007594Y007417D02*
X007434Y007417D01*
X007411Y007535D02*
X007617Y007535D01*
X007677Y007654D02*
X007351Y007654D01*
X008351Y007654D02*
X008677Y007654D01*
X008617Y007535D02*
X008411Y007535D01*
X008434Y007417D02*
X008594Y007417D01*
X008600Y007298D02*
X008428Y007298D01*
X008379Y007180D02*
X008649Y007180D01*
X008756Y007061D02*
X008272Y007061D01*
X007704Y006824D02*
X011774Y006824D01*
X011774Y006706D02*
X010880Y006706D01*
X010931Y006587D02*
X011774Y006587D01*
X011774Y006469D02*
X010931Y006469D01*
X010612Y006469D02*
X010536Y006469D01*
X010535Y006350D02*
X009813Y006350D01*
X009812Y006469D02*
X009736Y006469D01*
X009736Y006587D02*
X009812Y006587D01*
X009812Y006706D02*
X009736Y006706D01*
X009468Y006706D02*
X007845Y006706D01*
X007889Y006587D02*
X009417Y006587D01*
X010080Y006706D02*
X010268Y006706D01*
X010217Y006587D02*
X010131Y006587D01*
X010131Y006469D02*
X010217Y006469D01*
X010217Y006231D02*
X010131Y006231D01*
X010131Y006113D02*
X010217Y006113D01*
X010226Y005994D02*
X010122Y005994D01*
X010613Y006350D02*
X011774Y006350D01*
X011773Y006231D02*
X010931Y006231D01*
X010931Y006113D02*
X011655Y006113D01*
X011536Y005994D02*
X010922Y005994D01*
X010612Y006587D02*
X010536Y006587D01*
X010536Y006706D02*
X010612Y006706D01*
X010756Y007061D02*
X010272Y007061D01*
X010379Y007180D02*
X010649Y007180D01*
X010600Y007298D02*
X010428Y007298D01*
X010434Y007417D02*
X010594Y007417D01*
X010617Y007535D02*
X010411Y007535D01*
X010351Y007654D02*
X010677Y007654D01*
X009677Y007654D02*
X009351Y007654D01*
X009411Y007535D02*
X009617Y007535D01*
X009594Y007417D02*
X009434Y007417D01*
X009428Y007298D02*
X009600Y007298D01*
X009649Y007180D02*
X009379Y007180D01*
X009272Y007061D02*
X009756Y007061D01*
X008102Y005757D02*
X008016Y005757D01*
X008016Y005639D02*
X008024Y005639D01*
X007997Y004497D02*
X009627Y004497D01*
X009596Y004484D01*
X009507Y004395D01*
X009459Y004280D01*
X009459Y004154D01*
X009507Y004039D01*
X009596Y003950D01*
X009614Y003942D01*
X009614Y003820D01*
X009391Y003597D01*
X009364Y003597D01*
X009474Y003706D01*
X009474Y003857D01*
X009054Y003857D01*
X009054Y003937D01*
X008974Y003937D01*
X008974Y004357D01*
X008823Y004357D01*
X008554Y004088D01*
X008554Y003937D01*
X008974Y003937D01*
X008974Y003857D01*
X008554Y003857D01*
X008554Y003706D01*
X008664Y003597D01*
X008364Y003597D01*
X008474Y003706D01*
X008474Y004088D01*
X008205Y004357D01*
X007833Y004357D01*
X007849Y004394D01*
X007849Y004497D01*
X007997Y004497D01*
X007849Y004453D02*
X009565Y004453D01*
X009482Y004335D02*
X009227Y004335D01*
X009205Y004357D02*
X009054Y004357D01*
X009054Y003937D01*
X009474Y003937D01*
X009474Y004088D01*
X009205Y004357D01*
X009054Y004335D02*
X008974Y004335D01*
X008974Y004216D02*
X009054Y004216D01*
X008801Y004335D02*
X008227Y004335D01*
X008345Y004216D02*
X008683Y004216D01*
X008564Y004098D02*
X008464Y004098D01*
X008474Y003979D02*
X008554Y003979D01*
X008474Y003861D02*
X008974Y003861D01*
X009054Y003861D02*
X009614Y003861D01*
X009566Y003979D02*
X009474Y003979D01*
X009464Y004098D02*
X009482Y004098D01*
X009459Y004216D02*
X009345Y004216D01*
X009054Y004098D02*
X008974Y004098D01*
X008974Y003979D02*
X009054Y003979D01*
X009474Y003742D02*
X009536Y003742D01*
X009418Y003624D02*
X009391Y003624D01*
X010014Y003861D02*
X010456Y003861D01*
X010403Y003979D02*
X010014Y003979D01*
X010066Y004098D02*
X010150Y004098D01*
X011103Y003861D02*
X011125Y003861D01*
X012134Y003742D02*
X012303Y003742D01*
X013277Y003301D02*
X013514Y003538D01*
X013514Y003597D01*
X013434Y003677D01*
X013434Y003877D01*
X013694Y004137D01*
X013934Y004137D01*
X014249Y004098D02*
X014482Y004098D01*
X014601Y003979D02*
X014210Y003979D01*
X014201Y003959D02*
X014249Y004074D01*
X014249Y004200D01*
X014201Y004315D01*
X014119Y004397D01*
X014183Y004397D01*
X014244Y004336D01*
X014244Y004336D01*
X014373Y004207D01*
X014874Y003706D01*
X014874Y003517D01*
X014783Y003517D01*
X014388Y003122D01*
X014388Y002939D01*
X014516Y002811D01*
X014634Y002693D01*
X014559Y002618D01*
X014559Y002485D01*
X014747Y002297D01*
X014889Y002438D01*
X014888Y002438D01*
X014889Y002438D02*
X014889Y002438D01*
X014747Y002297D01*
X014936Y002109D01*
X015068Y002109D01*
X015154Y002194D01*
X015534Y001814D01*
X015534Y001760D01*
X015534Y001594D01*
X015610Y001518D01*
X015594Y001481D01*
X015594Y001313D01*
X015658Y001159D01*
X015660Y001157D01*
X015368Y001157D01*
X015370Y001159D01*
X015434Y001313D01*
X015434Y001377D01*
X015034Y001377D01*
X015034Y001417D01*
X014994Y001417D01*
X014994Y001817D01*
X014930Y001817D01*
X014776Y001753D01*
X014658Y001635D01*
X014594Y001481D01*
X014594Y001417D01*
X014994Y001417D01*
X014994Y001377D01*
X014594Y001377D01*
X014594Y001313D01*
X014658Y001159D01*
X014660Y001157D01*
X014368Y001157D01*
X014370Y001159D01*
X014434Y001313D01*
X014434Y001481D01*
X014370Y001635D01*
X014325Y001680D01*
X014325Y002341D01*
X014469Y002485D01*
X014469Y002618D01*
X014290Y002796D01*
X014149Y002938D01*
X014007Y003079D01*
X013904Y003182D01*
X013957Y003182D01*
X014072Y003230D01*
X014161Y003319D01*
X014209Y003434D01*
X014209Y003560D01*
X014161Y003675D01*
X014072Y003764D01*
X013957Y003812D01*
X013831Y003812D01*
X013716Y003764D01*
X013687Y003735D01*
X013654Y003768D01*
X013654Y003786D01*
X013747Y003879D01*
X013756Y003870D01*
X013871Y003822D01*
X013997Y003822D01*
X014112Y003870D01*
X014201Y003959D01*
X014090Y003861D02*
X014719Y003861D01*
X014838Y003742D02*
X014094Y003742D01*
X014183Y003624D02*
X014874Y003624D01*
X014771Y003505D02*
X014209Y003505D01*
X014189Y003386D02*
X014652Y003386D01*
X014534Y003268D02*
X014110Y003268D01*
X013937Y003149D02*
X014415Y003149D01*
X014388Y003031D02*
X014056Y003031D01*
X014174Y002912D02*
X014415Y002912D01*
X014608Y003031D02*
X014874Y003297D01*
X014994Y003297D01*
X015094Y003397D01*
X015094Y003797D01*
X014464Y004427D01*
X014245Y004335D02*
X014182Y004335D01*
X014242Y004216D02*
X014364Y004216D01*
X014373Y004207D02*
X014373Y004207D01*
X013778Y003861D02*
X013729Y003861D01*
X013694Y003742D02*
X013680Y003742D01*
X014994Y003297D02*
X015194Y003297D01*
X015469Y003022D01*
X015469Y003018D01*
X015611Y003160D02*
X015610Y003160D01*
X015611Y003160D02*
X015954Y002817D01*
X015954Y002514D01*
X015834Y002394D01*
X015810Y002394D01*
X015327Y002877D01*
X015186Y002735D02*
X015044Y002594D01*
X014608Y003031D01*
X014533Y002794D02*
X014293Y002794D01*
X014411Y002675D02*
X014617Y002675D01*
X014559Y002557D02*
X014469Y002557D01*
X014422Y002438D02*
X014606Y002438D01*
X014725Y002320D02*
X014325Y002320D01*
X014325Y002201D02*
X014843Y002201D01*
X014770Y002320D02*
X014770Y002320D01*
X014903Y002448D02*
X015114Y002237D01*
X015266Y002082D02*
X014325Y002082D01*
X014325Y001964D02*
X015384Y001964D01*
X015503Y001845D02*
X014325Y001845D01*
X014325Y001727D02*
X014750Y001727D01*
X014647Y001608D02*
X014381Y001608D01*
X014430Y001490D02*
X014598Y001490D01*
X014594Y001371D02*
X014434Y001371D01*
X014409Y001253D02*
X014619Y001253D01*
X015034Y001417D02*
X015034Y001817D01*
X015098Y001817D01*
X015252Y001753D01*
X015370Y001635D01*
X015434Y001481D01*
X015434Y001417D01*
X015034Y001417D01*
X015034Y001490D02*
X014994Y001490D01*
X014994Y001608D02*
X015034Y001608D01*
X015034Y001727D02*
X014994Y001727D01*
X015278Y001727D02*
X015534Y001727D01*
X015534Y001608D02*
X015381Y001608D01*
X015430Y001490D02*
X015598Y001490D01*
X015594Y001371D02*
X015434Y001371D01*
X015409Y001253D02*
X015619Y001253D01*
X016940Y001817D02*
X016963Y001840D01*
X016963Y001973D01*
X016790Y002145D01*
X016565Y001920D01*
X016511Y001975D01*
X016736Y002200D01*
X016563Y002373D01*
X016490Y002373D01*
X016490Y002446D01*
X016174Y002762D01*
X016174Y002874D01*
X016594Y002454D01*
X016711Y002337D01*
X016951Y002337D01*
X017481Y001807D01*
X017391Y001717D01*
X017288Y001717D01*
X017252Y001753D01*
X017098Y001817D01*
X016940Y001817D01*
X016963Y001845D02*
X017443Y001845D01*
X017324Y001964D02*
X016963Y001964D01*
X016853Y002082D02*
X017206Y002082D01*
X017087Y002201D02*
X016735Y002201D01*
X016814Y002237D02*
X015751Y003300D01*
X015454Y003597D01*
X015497Y003556D02*
X015549Y003608D01*
X015728Y003786D01*
X015728Y003786D01*
X015869Y003928D01*
X015869Y003928D01*
X015973Y004032D01*
X015973Y004032D01*
X016038Y004097D01*
X015705Y004097D01*
X015314Y003706D01*
X015314Y003706D01*
X015314Y003488D01*
X015372Y003430D01*
X015408Y003466D01*
X015432Y003491D01*
X015445Y003503D01*
X015497Y003555D01*
X015549Y003503D01*
X015549Y003503D01*
X015549Y003504D01*
X015497Y003556D01*
X015547Y003505D02*
X015548Y003505D01*
X015446Y003505D02*
X015314Y003505D01*
X015314Y003624D02*
X015565Y003624D01*
X015683Y003742D02*
X015350Y003742D01*
X015094Y003797D02*
X015614Y004317D01*
X016154Y004317D01*
X016459Y004012D01*
X016459Y004008D01*
X015921Y003979D02*
X015587Y003979D01*
X015469Y003861D02*
X015802Y003861D01*
X015751Y003301D02*
X015751Y003300D01*
X015974Y003077D01*
X016174Y002794D02*
X016254Y002794D01*
X016260Y002675D02*
X016373Y002675D01*
X016379Y002557D02*
X016492Y002557D01*
X016490Y002438D02*
X016610Y002438D01*
X016616Y002320D02*
X016969Y002320D01*
X016834Y002237D02*
X016814Y002237D01*
X016834Y002237D02*
X016517Y001920D01*
X016511Y001920D01*
X016522Y001964D02*
X016609Y001964D01*
X016618Y002082D02*
X016727Y002082D01*
X017278Y001727D02*
X017401Y001727D01*
X016037Y002394D02*
X016008Y002394D01*
X016008Y002443D01*
X015774Y002677D01*
X015834Y002394D02*
X016008Y002394D01*
X014903Y002452D02*
X014903Y002448D01*
X018250Y003174D02*
X018313Y003112D01*
X018748Y003112D01*
X018842Y003018D01*
X018842Y002817D01*
X018857Y002817D01*
X019597Y002077D01*
X020451Y002077D01*
X020617Y002077D01*
X020893Y001801D01*
X020930Y001817D01*
X021098Y001817D01*
X021246Y001755D01*
X021246Y007039D01*
X021098Y006977D01*
X020930Y006977D01*
X020776Y007041D01*
X020658Y007159D01*
X020594Y007313D01*
X020594Y007481D01*
X020658Y007635D01*
X020730Y007707D01*
X020298Y007707D01*
X020370Y007635D01*
X020434Y007481D01*
X020434Y007313D01*
X020370Y007159D01*
X020252Y007041D01*
X020098Y006977D01*
X019930Y006977D01*
X019776Y007041D01*
X019658Y007159D01*
X019594Y007313D01*
X019594Y007481D01*
X019658Y007635D01*
X019730Y007707D01*
X019298Y007707D01*
X019370Y007635D01*
X019434Y007481D01*
X019434Y007313D01*
X019370Y007159D01*
X019252Y007041D01*
X019098Y006977D01*
X018930Y006977D01*
X018776Y007041D01*
X018658Y007159D01*
X018594Y007313D01*
X018594Y007481D01*
X018658Y007635D01*
X018730Y007707D01*
X018298Y007707D01*
X018370Y007635D01*
X018434Y007481D01*
X018434Y007313D01*
X018370Y007159D01*
X018252Y007041D01*
X018098Y006977D01*
X017930Y006977D01*
X017776Y007041D01*
X017658Y007159D01*
X017594Y007313D01*
X017594Y007481D01*
X017658Y007635D01*
X017730Y007707D01*
X017298Y007707D01*
X017370Y007635D01*
X017434Y007481D01*
X017434Y007313D01*
X017370Y007159D01*
X017252Y007041D01*
X017098Y006977D01*
X016957Y006977D01*
X016937Y006957D01*
X016857Y006877D01*
X016927Y006877D01*
X017092Y006877D01*
X017854Y006116D01*
X018361Y005620D01*
X018361Y005620D01*
X018361Y005741D01*
X018361Y005907D01*
X018494Y006040D01*
X018611Y006157D01*
X020156Y006157D01*
X020157Y006158D01*
X020157Y006514D01*
X020251Y006608D01*
X020777Y006608D01*
X020871Y006514D01*
X020871Y005949D01*
X020819Y005897D01*
X020871Y005845D01*
X020871Y005601D01*
X020553Y005601D01*
X020553Y005524D01*
X020871Y005524D01*
X020871Y005280D01*
X020777Y005186D01*
X020552Y005186D01*
X020552Y005524D01*
X020476Y005524D01*
X020476Y005186D01*
X020251Y005186D01*
X020157Y005280D01*
X020157Y005524D01*
X020475Y005524D01*
X020475Y005601D01*
X020157Y005601D01*
X020157Y005757D01*
X020156Y005757D01*
X018777Y005757D01*
X018761Y005741D01*
X018761Y005620D01*
X018883Y005620D01*
X018977Y005526D01*
X018977Y004764D01*
X018883Y004670D01*
X018748Y004670D01*
X018778Y004640D01*
X018778Y004620D01*
X019275Y004124D01*
X019789Y004124D01*
X019883Y004030D01*
X019883Y003849D01*
X020157Y003849D01*
X020157Y003945D01*
X020209Y003997D01*
X020157Y004049D01*
X020157Y004293D01*
X020475Y004293D01*
X020475Y004370D01*
X020157Y004370D01*
X020157Y004614D01*
X020251Y004708D01*
X020476Y004708D01*
X020476Y004370D01*
X020552Y004370D01*
X020552Y004708D01*
X020777Y004708D01*
X020871Y004614D01*
X020871Y004370D01*
X020553Y004370D01*
X020553Y004293D01*
X020871Y004293D01*
X020871Y004049D01*
X020819Y003997D01*
X020871Y003945D01*
X020871Y003380D01*
X020777Y003286D01*
X020251Y003286D01*
X020157Y003380D01*
X020157Y003449D01*
X019883Y003449D01*
X019883Y003268D01*
X021246Y003268D01*
X021246Y003386D02*
X020871Y003386D01*
X020871Y003505D02*
X021246Y003505D01*
X021246Y003624D02*
X020871Y003624D01*
X020871Y003742D02*
X021246Y003742D01*
X021246Y003861D02*
X020871Y003861D01*
X020837Y003979D02*
X021246Y003979D01*
X021246Y004098D02*
X020871Y004098D01*
X020871Y004216D02*
X021246Y004216D01*
X021246Y004335D02*
X020553Y004335D01*
X020475Y004335D02*
X019064Y004335D01*
X018945Y004453D02*
X020157Y004453D01*
X020476Y004453D02*
X020552Y004453D01*
X020552Y004572D02*
X020476Y004572D01*
X020476Y004690D02*
X020552Y004690D01*
X020233Y004690D02*
X019809Y004690D01*
X019789Y004670D02*
X019883Y004764D01*
X019883Y005526D01*
X019789Y005620D01*
X019145Y005620D01*
X019051Y005526D01*
X019051Y004764D01*
X019145Y004670D01*
X019789Y004670D01*
X019883Y004809D02*
X021246Y004809D01*
X021246Y004690D02*
X020795Y004690D01*
X020871Y004572D02*
X021246Y004572D01*
X021246Y004453D02*
X020871Y004453D01*
X020157Y004572D02*
X018827Y004572D01*
X018904Y004690D02*
X019124Y004690D01*
X019051Y004809D02*
X018977Y004809D01*
X018977Y004927D02*
X019051Y004927D01*
X019051Y005046D02*
X018977Y005046D01*
X018977Y005165D02*
X019051Y005165D01*
X019051Y005283D02*
X018977Y005283D01*
X018977Y005402D02*
X019051Y005402D01*
X019051Y005520D02*
X018977Y005520D01*
X018761Y005639D02*
X020157Y005639D01*
X020157Y005520D02*
X019883Y005520D01*
X019883Y005402D02*
X020157Y005402D01*
X020157Y005283D02*
X019883Y005283D01*
X019883Y005165D02*
X021246Y005165D01*
X021246Y005283D02*
X020871Y005283D01*
X020871Y005402D02*
X021246Y005402D01*
X021246Y005520D02*
X020871Y005520D01*
X020871Y005639D02*
X021246Y005639D01*
X021246Y005757D02*
X020871Y005757D01*
X020840Y005876D02*
X021246Y005876D01*
X021246Y005994D02*
X020871Y005994D01*
X020871Y006113D02*
X021246Y006113D01*
X021246Y006231D02*
X020871Y006231D01*
X020871Y006350D02*
X021246Y006350D01*
X021246Y006469D02*
X020871Y006469D01*
X020798Y006587D02*
X021246Y006587D01*
X021246Y006706D02*
X017264Y006706D01*
X017382Y006587D02*
X020230Y006587D01*
X020157Y006469D02*
X017501Y006469D01*
X017619Y006350D02*
X020157Y006350D01*
X020157Y006231D02*
X017738Y006231D01*
X017857Y006113D02*
X018567Y006113D01*
X018449Y005994D02*
X017978Y005994D01*
X018099Y005876D02*
X018361Y005876D01*
X018361Y005757D02*
X018221Y005757D01*
X018342Y005639D02*
X018361Y005639D01*
X019883Y005046D02*
X021246Y005046D01*
X021246Y004927D02*
X019883Y004927D01*
X020476Y005283D02*
X020552Y005283D01*
X020552Y005402D02*
X020476Y005402D01*
X020476Y005520D02*
X020552Y005520D01*
X020157Y004216D02*
X019182Y004216D01*
X019815Y004098D02*
X020157Y004098D01*
X020191Y003979D02*
X019883Y003979D01*
X019883Y003861D02*
X020157Y003861D01*
X020157Y003386D02*
X019883Y003386D01*
X019883Y003268D02*
X019789Y003174D01*
X019145Y003174D01*
X019051Y003268D01*
X018977Y003268D01*
X018977Y003856D01*
X019051Y003782D01*
X019051Y003268D01*
X018977Y003268D02*
X018883Y003174D01*
X018250Y003174D01*
X018275Y003149D02*
X021246Y003149D01*
X021246Y003031D02*
X020168Y003031D01*
X020181Y003018D02*
X020087Y003112D01*
X019882Y003112D01*
X019882Y002636D01*
X019844Y002636D01*
X019844Y002598D01*
X019546Y002598D01*
X019546Y002216D01*
X019640Y002122D01*
X019844Y002122D01*
X019844Y002598D01*
X019882Y002598D01*
X019882Y002122D01*
X020087Y002122D01*
X020181Y002216D01*
X020181Y002598D01*
X019882Y002598D01*
X019882Y002636D01*
X020181Y002636D01*
X020181Y003018D01*
X020181Y002912D02*
X021246Y002912D01*
X021246Y002794D02*
X020181Y002794D01*
X020181Y002675D02*
X021246Y002675D01*
X021246Y002557D02*
X020181Y002557D01*
X020181Y002438D02*
X021246Y002438D01*
X021246Y002320D02*
X020181Y002320D01*
X020166Y002201D02*
X021246Y002201D01*
X021246Y002082D02*
X019591Y002082D01*
X019561Y002201D02*
X019473Y002201D01*
X019546Y002320D02*
X019354Y002320D01*
X019236Y002438D02*
X019546Y002438D01*
X019844Y002438D02*
X019882Y002438D01*
X019882Y002320D02*
X019844Y002320D01*
X019844Y002201D02*
X019882Y002201D01*
X019882Y002557D02*
X019844Y002557D01*
X019844Y002636D02*
X019546Y002636D01*
X019546Y003018D01*
X019640Y003112D01*
X019844Y003112D01*
X019844Y002636D01*
X019844Y002675D02*
X019882Y002675D01*
X019882Y002794D02*
X019844Y002794D01*
X019546Y002794D02*
X018880Y002794D01*
X018999Y002675D02*
X019546Y002675D01*
X019546Y002557D02*
X019117Y002557D01*
X018842Y002912D02*
X019546Y002912D01*
X019559Y003031D02*
X018829Y003031D01*
X018977Y003386D02*
X019051Y003386D01*
X019051Y003505D02*
X018977Y003505D01*
X018977Y003624D02*
X019051Y003624D01*
X019051Y003742D02*
X018977Y003742D01*
X019844Y003031D02*
X019882Y003031D01*
X019882Y002912D02*
X019844Y002912D01*
X020730Y001964D02*
X021246Y001964D01*
X021246Y001845D02*
X020848Y001845D01*
X013794Y005037D02*
X013794Y005258D01*
X013418Y005634D01*
X013559Y005776D01*
X012569Y004786D02*
X012278Y005077D01*
X012274Y005077D01*
X012569Y004786D02*
X012569Y004782D01*
X008637Y003624D02*
X008391Y003624D01*
X008474Y003742D02*
X008554Y003742D01*
X004814Y002438D02*
X004038Y002438D01*
X004110Y002320D02*
X004814Y002320D01*
X004484Y002201D02*
X004110Y002201D01*
X004110Y002082D02*
X004403Y002082D01*
X004403Y001964D02*
X004110Y001964D01*
X004110Y001845D02*
X004403Y001845D01*
X004403Y001727D02*
X004110Y001727D01*
X004110Y001608D02*
X004403Y001608D01*
X006434Y001371D02*
X006594Y001371D01*
X006619Y001253D02*
X006434Y001253D01*
X009278Y001727D02*
X009750Y001727D01*
X009647Y001608D02*
X009381Y001608D01*
X009430Y001490D02*
X009598Y001490D01*
X009594Y001371D02*
X009434Y001371D01*
X009409Y001253D02*
X009619Y001253D01*
X004704Y002557D02*
X002575Y002557D01*
X002779Y002675D02*
X004585Y002675D01*
X004554Y002794D02*
X004022Y002794D01*
X004110Y002912D02*
X004554Y002912D01*
X004554Y003031D02*
X004110Y003031D01*
X004110Y003149D02*
X004616Y003149D01*
X004734Y003268D02*
X004110Y003268D01*
X003458Y003031D02*
X003458Y003031D01*
X003458Y002912D02*
X003458Y002912D01*
X003458Y002794D02*
X003458Y002794D01*
X002895Y002794D02*
X002867Y002794D01*
X001513Y006113D02*
X001435Y006113D01*
X016923Y006943D02*
X021246Y006943D01*
X021246Y006824D02*
X017145Y006824D01*
X017272Y007061D02*
X017756Y007061D01*
X017649Y007180D02*
X017379Y007180D01*
X017428Y007298D02*
X017600Y007298D01*
X017594Y007417D02*
X017434Y007417D01*
X017411Y007535D02*
X017617Y007535D01*
X017677Y007654D02*
X017351Y007654D01*
X018351Y007654D02*
X018677Y007654D01*
X018617Y007535D02*
X018411Y007535D01*
X018434Y007417D02*
X018594Y007417D01*
X018600Y007298D02*
X018428Y007298D01*
X018379Y007180D02*
X018649Y007180D01*
X018756Y007061D02*
X018272Y007061D01*
X019272Y007061D02*
X019756Y007061D01*
X019649Y007180D02*
X019379Y007180D01*
X019428Y007298D02*
X019600Y007298D01*
X019594Y007417D02*
X019434Y007417D01*
X019411Y007535D02*
X019617Y007535D01*
X019677Y007654D02*
X019351Y007654D01*
X020351Y007654D02*
X020677Y007654D01*
X020617Y007535D02*
X020411Y007535D01*
X020434Y007417D02*
X020594Y007417D01*
X020600Y007298D02*
X020428Y007298D01*
X020379Y007180D02*
X020649Y007180D01*
X020756Y007061D02*
X020272Y007061D01*
D27*
X020514Y006232D02*
X020239Y005957D01*
X018694Y005957D01*
X018561Y005824D01*
X018561Y005145D01*
X017712Y005975D01*
X017010Y006677D01*
X016654Y006677D01*
X015611Y005634D01*
X015610Y005634D01*
X015473Y005776D02*
X016854Y007157D01*
X016854Y007237D01*
X017014Y007397D01*
X016014Y007397D02*
X015914Y007297D01*
X015914Y006497D01*
X015334Y005917D01*
X015327Y005917D01*
X015469Y005776D02*
X015473Y005776D01*
X015196Y006059D02*
X015674Y006537D01*
X015674Y007017D01*
X015454Y007237D01*
X015174Y007237D01*
X015014Y007397D01*
X013754Y006577D02*
X013594Y006737D01*
X013754Y006577D02*
X013754Y006430D01*
X013984Y006200D01*
X013842Y006059D02*
X013544Y006357D01*
X013434Y006357D01*
X013034Y006477D02*
X012554Y006957D01*
X012634Y006617D02*
X012354Y006617D01*
X012334Y006637D01*
X012634Y006617D02*
X012854Y006397D01*
X012854Y005617D01*
X013119Y005352D01*
X013135Y005352D01*
X013277Y005494D02*
X013277Y005493D01*
X013277Y005494D02*
X013034Y005737D01*
X013034Y006477D01*
X012694Y006097D02*
X012534Y006257D01*
X012694Y006097D02*
X012694Y005517D01*
X012994Y005217D01*
X012994Y005210D01*
X012852Y005079D02*
X012494Y005437D01*
X012494Y005877D01*
X012414Y005877D01*
X011514Y005397D02*
X011449Y005332D01*
X011449Y004937D01*
X011854Y004837D02*
X011914Y004897D01*
X011854Y004837D02*
X011854Y004377D01*
X011654Y004177D01*
X011449Y004177D01*
X010779Y004177D02*
X010739Y004217D01*
X010314Y004217D01*
X009834Y004697D01*
X007914Y004697D01*
X007654Y004957D01*
X005054Y004957D01*
X004094Y003997D01*
X003463Y003997D01*
X003458Y003992D01*
X003458Y003677D02*
X004054Y003677D01*
X005154Y004777D01*
X007214Y004777D01*
X007534Y004457D01*
X007014Y004117D02*
X006674Y004457D01*
X006094Y004457D01*
X005994Y004477D01*
X007014Y004117D02*
X007014Y003897D01*
X007014Y003557D01*
X007174Y003397D01*
X009474Y003397D01*
X009814Y003737D01*
X009814Y004177D01*
X009774Y004217D01*
X010599Y005117D02*
X010779Y004937D01*
X010599Y005117D02*
X009374Y005117D01*
X007581Y005737D02*
X007574Y005744D01*
X005654Y006017D02*
X005654Y006606D01*
X005003Y007257D01*
X004874Y006277D02*
X003274Y006277D01*
X002405Y007146D01*
X002405Y007337D01*
X001223Y007337D02*
X001139Y007253D01*
X001139Y006457D01*
X004874Y006277D02*
X005374Y005777D01*
X005374Y005492D01*
X005408Y005397D01*
X006014Y003897D02*
X006054Y003897D01*
X007014Y002897D02*
X007014Y002577D01*
X007434Y002157D01*
X009714Y002157D01*
X009874Y002317D01*
X010594Y001537D02*
X010854Y001797D01*
X011494Y001797D01*
X011934Y002237D01*
X012834Y002237D01*
X013234Y002637D01*
X013234Y002697D01*
X013555Y003018D01*
X013559Y003018D01*
X013694Y002877D02*
X013701Y002877D01*
X012861Y002037D01*
X012034Y002037D01*
X011474Y001477D01*
X011094Y001477D01*
X011014Y001397D01*
X010594Y001537D02*
X010154Y001537D01*
X010014Y001397D01*
X012014Y001397D02*
X012454Y001837D01*
X013074Y001837D01*
X013474Y002237D01*
X013474Y002377D01*
X013832Y002735D01*
X013842Y002735D01*
X013984Y002594D02*
X013754Y002364D01*
X013754Y002137D01*
X013014Y001397D01*
X014014Y001397D02*
X014125Y001508D01*
X014125Y002452D01*
X013984Y002587D02*
X013984Y002594D01*
X013034Y002657D02*
X012794Y002417D01*
X011469Y002417D01*
X011329Y002557D01*
X012374Y003017D02*
X012554Y003197D01*
X012607Y003197D01*
X012994Y003584D01*
X012981Y003584D01*
X013135Y003442D02*
X013135Y003438D01*
X012754Y003057D01*
X012754Y002817D01*
X012654Y002737D01*
X013034Y002657D02*
X013034Y003058D01*
X013277Y003301D01*
X013418Y003181D02*
X013438Y003181D01*
X013614Y003357D01*
X013754Y003357D01*
X013894Y003497D01*
X013418Y003181D02*
X013418Y003160D01*
X012852Y003725D02*
X012484Y003357D01*
X012174Y003357D01*
X011934Y003117D01*
X011894Y003537D02*
X012381Y003537D01*
X012711Y003867D01*
X012711Y003854D01*
X012569Y004008D02*
X012537Y004008D01*
X012428Y004117D01*
X012394Y004117D01*
X012565Y004008D02*
X012314Y003757D01*
X012314Y003797D02*
X012358Y003797D01*
X012565Y004008D02*
X012569Y004008D01*
X012842Y003725D02*
X012852Y003725D01*
X013254Y004517D02*
X013107Y004664D01*
X012974Y004664D01*
X012711Y004927D01*
X012852Y005069D02*
X012852Y005079D01*
X013701Y005917D02*
X014054Y005564D01*
X014054Y005517D01*
X014834Y005517D02*
X014974Y005377D01*
X014834Y005517D02*
X014834Y005977D01*
X015044Y006187D01*
X015044Y006200D01*
X015044Y006207D01*
X015186Y006059D02*
X015196Y006059D01*
X015909Y005352D02*
X016354Y005797D01*
X016714Y005797D01*
X016814Y005897D01*
X017214Y005517D02*
X016354Y005517D01*
X016047Y005210D01*
X016034Y005210D01*
X016176Y005079D02*
X016394Y005297D01*
X016854Y005297D01*
X017214Y004937D01*
X016834Y004977D02*
X016714Y005097D01*
X016494Y005097D01*
X016324Y004927D01*
X016317Y004927D01*
X016176Y005069D02*
X016176Y005079D01*
X015909Y005352D02*
X015893Y005352D01*
X015751Y005493D02*
X015751Y005494D01*
X016654Y006397D01*
X016874Y006397D01*
X018134Y005137D01*
X018134Y004597D01*
X018174Y004557D01*
X018578Y004557D01*
X018578Y004537D01*
X019467Y003649D01*
X020501Y003649D01*
X020514Y003662D01*
X020508Y003669D01*
X018774Y002617D02*
X018525Y002617D01*
X017894Y003248D01*
X017894Y003397D01*
X016505Y004786D01*
X016459Y004786D01*
X016834Y004837D02*
X016834Y004977D01*
X016834Y004837D02*
X017134Y004537D01*
X017274Y004537D01*
X017374Y004437D01*
X016607Y003577D02*
X016317Y003867D01*
X016186Y003725D02*
X016574Y003337D01*
X017074Y003337D01*
X019014Y001397D01*
X018174Y001557D02*
X018014Y001397D01*
X018174Y001557D02*
X018174Y001917D01*
X016974Y003117D01*
X016494Y003117D01*
X016034Y003577D01*
X016034Y003584D01*
X015893Y003442D02*
X015893Y003438D01*
X016794Y002537D01*
X017034Y002537D01*
X017694Y001877D01*
X017694Y001737D01*
X017474Y001517D01*
X017134Y001517D01*
X017014Y001397D01*
X016014Y001397D02*
X015734Y001677D01*
X015734Y001897D01*
X015044Y002587D01*
X015044Y002594D01*
X016607Y003577D02*
X016974Y003577D01*
X016974Y003597D01*
X017094Y003717D01*
X016186Y003725D02*
X016176Y003725D01*
X018774Y002617D02*
X019514Y001877D01*
X020534Y001877D01*
X021014Y001397D01*
X017314Y005417D02*
X017214Y005517D01*
X017712Y005975D02*
X017630Y006057D01*
X006514Y001897D02*
X006474Y001857D01*
X005449Y001857D01*
X005014Y002092D02*
X004779Y001857D01*
X005014Y002092D02*
X005014Y002897D01*
D28*
X004174Y002617D03*
X007534Y004457D03*
X005994Y004477D03*
X007814Y005237D03*
X009034Y005397D03*
X009374Y005117D03*
X009774Y004217D03*
X011894Y003537D03*
X011934Y003117D03*
X012374Y003017D03*
X012654Y002737D03*
X013894Y003497D03*
X013934Y004137D03*
X013254Y004517D03*
X013794Y005037D03*
X014054Y005517D03*
X014974Y005377D03*
X016814Y005897D03*
X017314Y005417D03*
X017214Y004937D03*
X017374Y004437D03*
X017094Y003717D03*
X015774Y002677D03*
X017074Y001977D03*
X011914Y004897D03*
X011514Y005397D03*
X012414Y005877D03*
X012534Y006257D03*
X012334Y006637D03*
X012554Y006957D03*
X013594Y006737D03*
X013434Y006357D03*
X008774Y006677D03*
X007574Y006537D03*
X005654Y006017D03*
X004334Y007237D03*
X002454Y005677D03*
X009654Y002917D03*
X009874Y002317D03*
X020014Y004997D03*
X020714Y004997D03*
M02*
