G75*
G70*
%OFA0B0*%
%FSLAX24Y24*%
%IPPOS*%
%LPD*%
%AMOC8*
5,1,8,0,0,1.08239X$1,22.5*
%
%ADD10R,0.0520X0.0520*%
%ADD11C,0.0520*%
%ADD12OC8,0.0600*%
%ADD13C,0.0160*%
%ADD14C,0.0310*%
%ADD15C,0.0080*%
%ADD16C,0.0120*%
D10*
X006014Y001397D03*
D11*
X007014Y001397D03*
X008014Y001397D03*
X009014Y001397D03*
X010014Y001397D03*
X011014Y001397D03*
X012014Y001397D03*
X013014Y001397D03*
X014014Y001397D03*
X015014Y001397D03*
X016014Y001397D03*
X017014Y001397D03*
X018014Y001397D03*
X019014Y001397D03*
X020014Y001397D03*
X021014Y001397D03*
X021014Y007397D03*
X020014Y007397D03*
X019014Y007397D03*
X018014Y007397D03*
X017014Y007397D03*
X016014Y007397D03*
X015014Y007397D03*
X014014Y007397D03*
X013014Y007397D03*
X012014Y007397D03*
X011014Y007397D03*
X010014Y007397D03*
X009014Y007397D03*
X008014Y007397D03*
X007014Y007397D03*
X006014Y007397D03*
D12*
X006014Y003897D03*
X005014Y003897D03*
X007014Y003897D03*
X008014Y003897D03*
X009014Y003897D03*
X009014Y002897D03*
X008014Y002897D03*
X007014Y002897D03*
X006014Y002897D03*
X005014Y002897D03*
D13*
X006014Y003897D02*
X006974Y004857D01*
X008494Y004857D01*
X009034Y005397D01*
X007574Y006537D02*
X007494Y006537D01*
X007014Y007017D01*
X007014Y007397D01*
D14*
X008774Y006677D03*
X007574Y006537D03*
X005654Y006017D03*
X007814Y005237D03*
X009034Y005397D03*
X009374Y005117D03*
X007534Y004457D03*
X005994Y004477D03*
X002454Y005677D03*
X004334Y007237D03*
X011514Y005397D03*
X011914Y004897D03*
X013254Y004517D03*
X013934Y004137D03*
X013894Y003497D03*
X012374Y003017D03*
X011934Y003117D03*
X012654Y002737D03*
X011894Y003537D03*
X009774Y004217D03*
X009654Y002917D03*
X009874Y002317D03*
X004174Y002617D03*
X012414Y005877D03*
X012534Y006257D03*
X012334Y006637D03*
X012554Y006957D03*
X013594Y006737D03*
X013434Y006357D03*
X014054Y005517D03*
X014974Y005377D03*
X013794Y005037D03*
X016814Y005897D03*
X017314Y005417D03*
X017214Y004937D03*
X017374Y004437D03*
X017094Y003717D03*
X015774Y002677D03*
X017074Y001977D03*
X020014Y004997D03*
X020714Y004997D03*
D15*
X000894Y007727D02*
X000894Y001137D01*
X005614Y001137D01*
X005614Y001357D01*
X005974Y001357D01*
X005974Y001437D01*
X005974Y001797D01*
X005696Y001797D01*
X005614Y001715D01*
X005614Y001437D01*
X005974Y001437D01*
X006054Y001437D01*
X006054Y001797D01*
X006332Y001797D01*
X006414Y001715D01*
X006414Y001437D01*
X006054Y001437D01*
X006054Y001357D01*
X006414Y001357D01*
X006414Y001137D01*
X006708Y001137D01*
X006675Y001170D01*
X006614Y001317D01*
X006614Y001477D01*
X006675Y001624D01*
X006787Y001736D01*
X006934Y001797D01*
X007094Y001797D01*
X007241Y001736D01*
X007353Y001624D01*
X007414Y001477D01*
X007414Y001317D01*
X007353Y001170D01*
X007320Y001137D01*
X007708Y001137D01*
X007675Y001170D01*
X007614Y001317D01*
X007614Y001357D01*
X007974Y001357D01*
X007974Y001437D01*
X007974Y001797D01*
X007934Y001797D01*
X007787Y001736D01*
X007675Y001624D01*
X007614Y001477D01*
X007614Y001437D01*
X007974Y001437D01*
X008054Y001437D01*
X008054Y001797D01*
X008094Y001797D01*
X008241Y001736D01*
X008353Y001624D01*
X008414Y001477D01*
X008414Y001437D01*
X008054Y001437D01*
X008054Y001357D01*
X008414Y001357D01*
X008414Y001317D01*
X008353Y001170D01*
X008320Y001137D01*
X008708Y001137D01*
X008675Y001170D01*
X008614Y001317D01*
X008614Y001477D01*
X008675Y001624D01*
X008787Y001736D01*
X008934Y001797D01*
X009094Y001797D01*
X009140Y001778D01*
X009339Y001977D01*
X009489Y001977D01*
X012339Y001977D01*
X012719Y002357D01*
X012869Y002357D01*
X013119Y002357D01*
X013894Y003132D01*
X013894Y003202D01*
X013835Y003202D01*
X013727Y003247D01*
X013644Y003330D01*
X013599Y003438D01*
X013599Y003556D01*
X013644Y003664D01*
X013727Y003747D01*
X013835Y003792D01*
X013953Y003792D01*
X014027Y003761D01*
X013946Y003842D01*
X013875Y003842D01*
X013767Y003887D01*
X013684Y003970D01*
X013639Y004078D01*
X013639Y004196D01*
X012287Y004196D01*
X012349Y004257D02*
X012129Y004037D01*
X011979Y004037D01*
X010011Y004037D01*
X009941Y003967D01*
X009833Y003922D01*
X009715Y003922D01*
X009607Y003967D01*
X009524Y004050D01*
X009479Y004158D01*
X009479Y004276D01*
X009524Y004384D01*
X009607Y004467D01*
X009715Y004512D01*
X009833Y004512D01*
X009941Y004467D01*
X010011Y004397D01*
X010780Y004397D01*
X009979Y005197D01*
X009769Y005197D01*
X009660Y005197D01*
X009669Y005176D01*
X009669Y005058D01*
X009624Y004950D01*
X009541Y004867D01*
X009433Y004822D01*
X009334Y004822D01*
X008848Y004337D01*
X008974Y004337D01*
X008974Y003937D01*
X009054Y003937D01*
X009054Y004337D01*
X009196Y004337D01*
X009454Y004079D01*
X009454Y003937D01*
X009054Y003937D01*
X009054Y003857D01*
X009454Y003857D01*
X009454Y003715D01*
X009316Y003577D01*
X009579Y003577D01*
X009654Y003652D01*
X009759Y003757D01*
X011697Y003757D01*
X011727Y003787D01*
X011835Y003832D01*
X011953Y003832D01*
X012061Y003787D01*
X012144Y003704D01*
X012189Y003596D01*
X012189Y003478D01*
X012144Y003370D01*
X012121Y003347D01*
X012184Y003284D01*
X012196Y003256D01*
X012207Y003267D01*
X012315Y003312D01*
X012433Y003312D01*
X012541Y003267D01*
X012624Y003184D01*
X012669Y003076D01*
X012669Y003032D01*
X012713Y003032D01*
X012821Y002987D01*
X012904Y002904D01*
X012949Y002796D01*
X012949Y002678D01*
X012904Y002570D01*
X012821Y002487D01*
X012713Y002442D01*
X012595Y002442D01*
X012511Y002477D01*
X012499Y002477D01*
X010689Y002477D01*
X010349Y002137D01*
X010199Y002137D01*
X010111Y002137D01*
X010041Y002067D01*
X009933Y002022D01*
X009815Y002022D01*
X009707Y002067D01*
X009624Y002150D01*
X009594Y002222D01*
X009554Y002182D01*
X009449Y002077D01*
X006729Y002077D01*
X006579Y002077D01*
X006198Y002459D01*
X006196Y002457D01*
X005832Y002457D01*
X005574Y002715D01*
X005574Y003079D01*
X005712Y003217D01*
X005589Y003217D01*
X005452Y003081D01*
X005454Y003079D01*
X005454Y002715D01*
X005196Y002457D01*
X004832Y002457D01*
X004574Y002715D01*
X004574Y003079D01*
X004832Y003337D01*
X005196Y003337D01*
X005198Y003335D01*
X005439Y003577D01*
X005589Y003577D01*
X005712Y003577D01*
X005574Y003715D01*
X005574Y004079D01*
X005774Y004280D01*
X005744Y004310D01*
X005699Y004418D01*
X005699Y004536D01*
X005744Y004644D01*
X005814Y004714D01*
X005814Y005602D01*
X005694Y005722D01*
X005595Y005722D01*
X005487Y005767D01*
X005404Y005850D01*
X005359Y005958D01*
X005359Y006076D01*
X005404Y006184D01*
X005487Y006267D01*
X005595Y006312D01*
X005713Y006312D01*
X005821Y006267D01*
X005904Y006184D01*
X005949Y006076D01*
X005949Y005977D01*
X006174Y005752D01*
X006174Y005602D01*
X006174Y004714D01*
X006244Y004644D01*
X006289Y004536D01*
X006289Y004483D01*
X006754Y004948D01*
X006883Y005077D01*
X008403Y005077D01*
X008739Y005413D01*
X008739Y005456D01*
X008784Y005564D01*
X008867Y005647D01*
X008939Y005677D01*
X008329Y005677D01*
X008179Y005677D01*
X007614Y006242D01*
X007515Y006242D01*
X007407Y006287D01*
X007324Y006370D01*
X007306Y006414D01*
X006923Y006797D01*
X006794Y006926D01*
X006794Y007055D01*
X006787Y007058D01*
X006675Y007170D01*
X006614Y007317D01*
X006614Y007477D01*
X006675Y007624D01*
X006778Y007727D01*
X006250Y007727D01*
X006353Y007624D01*
X006414Y007477D01*
X006414Y007437D01*
X006054Y007437D01*
X006054Y007357D01*
X006414Y007357D01*
X006414Y007317D01*
X006353Y007170D01*
X006241Y007058D01*
X006094Y006997D01*
X006054Y006997D01*
X006054Y007357D01*
X005974Y007357D01*
X005974Y006997D01*
X005934Y006997D01*
X005787Y007058D01*
X005675Y007170D01*
X005614Y007317D01*
X005614Y007357D01*
X005974Y007357D01*
X005974Y007437D01*
X005614Y007437D01*
X005614Y007477D01*
X005675Y007624D01*
X005778Y007727D01*
X000894Y007727D01*
X000894Y007652D02*
X005703Y007652D01*
X005654Y007573D02*
X000894Y007573D01*
X000894Y007495D02*
X005622Y007495D01*
X005614Y007338D02*
X000894Y007338D01*
X000894Y007416D02*
X005974Y007416D01*
X005974Y007338D02*
X006054Y007338D01*
X006054Y007416D02*
X006614Y007416D01*
X006614Y007338D02*
X006414Y007338D01*
X006390Y007259D02*
X006638Y007259D01*
X006671Y007180D02*
X006357Y007180D01*
X006285Y007102D02*
X006743Y007102D01*
X006794Y007023D02*
X006157Y007023D01*
X006054Y007023D02*
X005974Y007023D01*
X005974Y007102D02*
X006054Y007102D01*
X006054Y007180D02*
X005974Y007180D01*
X005974Y007259D02*
X006054Y007259D01*
X005743Y007102D02*
X000894Y007102D01*
X000894Y007180D02*
X005671Y007180D01*
X005638Y007259D02*
X000894Y007259D01*
X000894Y007023D02*
X005871Y007023D01*
X006794Y006945D02*
X000894Y006945D01*
X000894Y006866D02*
X006854Y006866D01*
X006932Y006788D02*
X000894Y006788D01*
X000894Y006709D02*
X007011Y006709D01*
X007089Y006631D02*
X000894Y006631D01*
X000894Y006552D02*
X007168Y006552D01*
X007246Y006474D02*
X000894Y006474D01*
X000894Y006395D02*
X007314Y006395D01*
X007377Y006316D02*
X000894Y006316D01*
X000894Y006238D02*
X005458Y006238D01*
X005394Y006159D02*
X000894Y006159D01*
X000894Y006081D02*
X005361Y006081D01*
X005359Y006002D02*
X000894Y006002D01*
X000894Y005924D02*
X005373Y005924D01*
X005409Y005845D02*
X000894Y005845D01*
X000894Y005767D02*
X005487Y005767D01*
X005728Y005688D02*
X000894Y005688D01*
X000894Y005610D02*
X005807Y005610D01*
X005814Y005531D02*
X000894Y005531D01*
X000894Y005453D02*
X005814Y005453D01*
X005814Y005374D02*
X000894Y005374D01*
X000894Y005295D02*
X005814Y005295D01*
X005814Y005217D02*
X000894Y005217D01*
X000894Y005138D02*
X005814Y005138D01*
X005814Y005060D02*
X000894Y005060D01*
X000894Y004981D02*
X005814Y004981D01*
X005814Y004903D02*
X000894Y004903D01*
X000894Y004824D02*
X005814Y004824D01*
X005814Y004746D02*
X002647Y004746D01*
X002710Y004720D02*
X002557Y004783D01*
X002391Y004783D01*
X002238Y004720D01*
X002120Y004602D01*
X002057Y004449D01*
X002057Y004283D01*
X002120Y004130D01*
X002238Y004012D01*
X002391Y003949D01*
X002557Y003949D01*
X002710Y004012D01*
X002828Y004130D01*
X002891Y004283D01*
X002891Y004449D01*
X002828Y004602D01*
X002710Y004720D01*
X002763Y004667D02*
X005767Y004667D01*
X005721Y004589D02*
X002833Y004589D01*
X002866Y004510D02*
X005699Y004510D01*
X005699Y004431D02*
X002891Y004431D01*
X002891Y004353D02*
X005726Y004353D01*
X005769Y004274D02*
X005259Y004274D01*
X005196Y004337D02*
X005054Y004337D01*
X005054Y003937D01*
X005454Y003937D01*
X005454Y004079D01*
X005196Y004337D01*
X005054Y004274D02*
X004974Y004274D01*
X004974Y004337D02*
X004832Y004337D01*
X004574Y004079D01*
X004574Y003937D01*
X004974Y003937D01*
X004974Y004337D01*
X004769Y004274D02*
X002888Y004274D01*
X002855Y004196D02*
X004691Y004196D01*
X004612Y004117D02*
X002815Y004117D01*
X002737Y004039D02*
X004574Y004039D01*
X004574Y003960D02*
X002584Y003960D01*
X002364Y003960D02*
X000894Y003960D01*
X000894Y003882D02*
X004974Y003882D01*
X004974Y003857D02*
X004574Y003857D01*
X004574Y003715D01*
X004832Y003457D01*
X004974Y003457D01*
X004974Y003857D01*
X005054Y003857D01*
X005054Y003937D01*
X004974Y003937D01*
X004974Y003857D01*
X004974Y003803D02*
X005054Y003803D01*
X005054Y003857D02*
X005054Y003457D01*
X005196Y003457D01*
X005454Y003715D01*
X005454Y003857D01*
X005054Y003857D01*
X005054Y003882D02*
X005574Y003882D01*
X005574Y003960D02*
X005454Y003960D01*
X005454Y004039D02*
X005574Y004039D01*
X005612Y004117D02*
X005416Y004117D01*
X005337Y004196D02*
X005691Y004196D01*
X005054Y004196D02*
X004974Y004196D01*
X004974Y004117D02*
X005054Y004117D01*
X005054Y004039D02*
X004974Y004039D01*
X004974Y003960D02*
X005054Y003960D01*
X005454Y003803D02*
X005574Y003803D01*
X005574Y003725D02*
X005454Y003725D01*
X005385Y003646D02*
X005643Y003646D01*
X005430Y003567D02*
X005307Y003567D01*
X005351Y003489D02*
X005228Y003489D01*
X005273Y003410D02*
X000894Y003410D01*
X000894Y003332D02*
X002228Y003332D01*
X002238Y003342D02*
X002120Y003224D01*
X002057Y003071D01*
X002057Y002905D01*
X002120Y002752D01*
X002238Y002634D01*
X002391Y002571D01*
X002557Y002571D01*
X002710Y002634D01*
X002828Y002752D01*
X002891Y002905D01*
X002891Y003071D01*
X002828Y003224D01*
X002710Y003342D01*
X002557Y003405D01*
X002391Y003405D01*
X002238Y003342D01*
X002149Y003253D02*
X000894Y003253D01*
X000894Y003175D02*
X002100Y003175D01*
X002067Y003096D02*
X000894Y003096D01*
X000894Y003018D02*
X002057Y003018D01*
X002057Y002939D02*
X000894Y002939D01*
X000894Y002861D02*
X002075Y002861D01*
X002108Y002782D02*
X000894Y002782D01*
X000894Y002704D02*
X002169Y002704D01*
X002260Y002625D02*
X000894Y002625D01*
X000894Y002546D02*
X004742Y002546D01*
X004821Y002468D02*
X000894Y002468D01*
X000894Y002389D02*
X006267Y002389D01*
X006346Y002311D02*
X000894Y002311D01*
X000894Y002232D02*
X006424Y002232D01*
X006503Y002154D02*
X000894Y002154D01*
X000894Y002075D02*
X009699Y002075D01*
X009622Y002154D02*
X009525Y002154D01*
X009374Y002257D02*
X006654Y002257D01*
X006014Y002897D01*
X006316Y003217D02*
X006454Y003079D01*
X006454Y002715D01*
X006452Y002713D01*
X006729Y002437D01*
X009299Y002437D01*
X009880Y003017D01*
X009739Y003017D01*
X009454Y003017D01*
X009454Y002715D01*
X009196Y002457D01*
X008832Y002457D01*
X008574Y002715D01*
X008574Y003079D01*
X008712Y003217D01*
X008316Y003217D01*
X008454Y003079D01*
X008454Y002715D01*
X008196Y002457D01*
X007832Y002457D01*
X007574Y002715D01*
X007574Y003079D01*
X007712Y003217D01*
X007316Y003217D01*
X007454Y003079D01*
X007454Y002715D01*
X007196Y002457D01*
X006832Y002457D01*
X006574Y002715D01*
X006574Y003079D01*
X006712Y003217D01*
X006316Y003217D01*
X006358Y003175D02*
X006670Y003175D01*
X006591Y003096D02*
X006437Y003096D01*
X006454Y003018D02*
X006574Y003018D01*
X006574Y002939D02*
X006454Y002939D01*
X006454Y002861D02*
X006574Y002861D01*
X006574Y002782D02*
X006454Y002782D01*
X006462Y002704D02*
X006585Y002704D01*
X006541Y002625D02*
X006664Y002625D01*
X006619Y002546D02*
X006742Y002546D01*
X006698Y002468D02*
X006821Y002468D01*
X007207Y002468D02*
X007821Y002468D01*
X007742Y002546D02*
X007286Y002546D01*
X007364Y002625D02*
X007664Y002625D01*
X007585Y002704D02*
X007443Y002704D01*
X007454Y002782D02*
X007574Y002782D01*
X007574Y002861D02*
X007454Y002861D01*
X007454Y002939D02*
X007574Y002939D01*
X007574Y003018D02*
X007454Y003018D01*
X007437Y003096D02*
X007591Y003096D01*
X007670Y003175D02*
X007358Y003175D01*
X008358Y003175D02*
X008670Y003175D01*
X008591Y003096D02*
X008437Y003096D01*
X008454Y003018D02*
X008574Y003018D01*
X008574Y002939D02*
X008454Y002939D01*
X008454Y002861D02*
X008574Y002861D01*
X008574Y002782D02*
X008454Y002782D01*
X008443Y002704D02*
X008585Y002704D01*
X008664Y002625D02*
X008364Y002625D01*
X008286Y002546D02*
X008742Y002546D01*
X008821Y002468D02*
X008207Y002468D01*
X009014Y002897D02*
X009314Y003197D01*
X009814Y003197D01*
X009894Y003277D01*
X011774Y003277D01*
X011934Y003117D01*
X011674Y002837D02*
X011554Y002957D01*
X010074Y002957D01*
X009374Y002257D01*
X009874Y002317D02*
X010274Y002317D01*
X010614Y002657D01*
X012574Y002657D01*
X012654Y002737D01*
X012927Y002625D02*
X013387Y002625D01*
X013309Y002546D02*
X012881Y002546D01*
X012775Y002468D02*
X013230Y002468D01*
X013152Y002389D02*
X010601Y002389D01*
X010522Y002311D02*
X012673Y002311D01*
X012595Y002232D02*
X010444Y002232D01*
X010365Y002154D02*
X012516Y002154D01*
X012438Y002075D02*
X010049Y002075D01*
X009414Y001797D02*
X009014Y001397D01*
X008634Y001525D02*
X008394Y001525D01*
X008414Y001447D02*
X008614Y001447D01*
X008614Y001368D02*
X008054Y001368D01*
X008054Y001447D02*
X007974Y001447D01*
X007974Y001525D02*
X008054Y001525D01*
X008054Y001604D02*
X007974Y001604D01*
X007974Y001682D02*
X008054Y001682D01*
X008054Y001761D02*
X007974Y001761D01*
X007848Y001761D02*
X007180Y001761D01*
X007294Y001682D02*
X007734Y001682D01*
X007667Y001604D02*
X007361Y001604D01*
X007394Y001525D02*
X007634Y001525D01*
X007614Y001447D02*
X007414Y001447D01*
X007414Y001368D02*
X007974Y001368D01*
X007625Y001290D02*
X007402Y001290D01*
X007370Y001211D02*
X007658Y001211D01*
X008370Y001211D02*
X008658Y001211D01*
X008625Y001290D02*
X008402Y001290D01*
X008361Y001604D02*
X008667Y001604D01*
X008734Y001682D02*
X008294Y001682D01*
X008180Y001761D02*
X008848Y001761D01*
X009202Y001840D02*
X000894Y001840D01*
X000894Y001918D02*
X009281Y001918D01*
X009414Y001797D02*
X012414Y001797D01*
X012794Y002177D01*
X013194Y002177D01*
X014074Y003057D01*
X014074Y003317D01*
X013894Y003497D01*
X014189Y003489D02*
X014299Y003489D01*
X014235Y003410D02*
X014378Y003410D01*
X014456Y003332D02*
X014254Y003332D01*
X014254Y003392D02*
X014189Y003457D01*
X014189Y003556D01*
X014158Y003630D01*
X015311Y002477D01*
X015477Y002477D01*
X015557Y002477D01*
X015607Y002427D01*
X015715Y002382D01*
X015833Y002382D01*
X015941Y002427D01*
X016024Y002510D01*
X016069Y002618D01*
X016069Y002736D01*
X016024Y002844D01*
X015941Y002927D01*
X015833Y002972D01*
X015715Y002972D01*
X015607Y002927D01*
X015557Y002877D01*
X015477Y002877D01*
X014229Y004125D01*
X014229Y004196D01*
X017198Y004196D01*
X017207Y004187D02*
X017315Y004142D01*
X017433Y004142D01*
X017541Y004187D01*
X017624Y004270D01*
X017669Y004378D01*
X017669Y004496D01*
X017624Y004604D01*
X017610Y004618D01*
X018869Y005877D01*
X020639Y005877D01*
X020789Y005877D01*
X021089Y006177D01*
X021194Y006282D01*
X021194Y007039D01*
X021241Y007058D01*
X021266Y007084D01*
X021266Y001710D01*
X021241Y001736D01*
X021094Y001797D01*
X020934Y001797D01*
X020787Y001736D01*
X020675Y001624D01*
X020614Y001477D01*
X020614Y001317D01*
X020675Y001170D01*
X020708Y001137D01*
X020320Y001137D01*
X020353Y001170D01*
X020414Y001317D01*
X020414Y001477D01*
X020353Y001624D01*
X020241Y001736D01*
X020094Y001797D01*
X019934Y001797D01*
X019888Y001778D01*
X017769Y003897D01*
X017619Y003897D01*
X017331Y003897D01*
X017261Y003967D01*
X017153Y004012D01*
X017035Y004012D01*
X016927Y003967D01*
X016844Y003884D01*
X016799Y003776D01*
X016799Y003658D01*
X016844Y003550D01*
X016927Y003467D01*
X017035Y003422D01*
X017153Y003422D01*
X017261Y003467D01*
X017331Y003537D01*
X017619Y003537D01*
X019633Y001523D01*
X019614Y001477D01*
X019614Y001317D01*
X019675Y001170D01*
X019708Y001137D01*
X019320Y001137D01*
X019353Y001170D01*
X019414Y001317D01*
X019414Y001477D01*
X019353Y001624D01*
X019241Y001736D01*
X019094Y001797D01*
X018934Y001797D01*
X018787Y001736D01*
X018675Y001624D01*
X018614Y001477D01*
X018614Y001317D01*
X018675Y001170D01*
X018708Y001137D01*
X018320Y001137D01*
X018353Y001170D01*
X018414Y001317D01*
X018414Y001477D01*
X018353Y001624D01*
X018241Y001736D01*
X018094Y001797D01*
X017934Y001797D01*
X017787Y001736D01*
X017675Y001624D01*
X017614Y001477D01*
X017614Y001317D01*
X017675Y001170D01*
X017708Y001137D01*
X017320Y001137D01*
X017353Y001170D01*
X017414Y001317D01*
X017414Y001477D01*
X017353Y001624D01*
X017241Y001736D01*
X017094Y001797D01*
X016934Y001797D01*
X016787Y001736D01*
X016675Y001624D01*
X016614Y001477D01*
X016614Y001317D01*
X016675Y001170D01*
X016708Y001137D01*
X016320Y001137D01*
X016353Y001170D01*
X016414Y001317D01*
X016414Y001477D01*
X016353Y001624D01*
X016241Y001736D01*
X016094Y001797D01*
X015934Y001797D01*
X015787Y001736D01*
X015675Y001624D01*
X015614Y001477D01*
X015614Y001317D01*
X015675Y001170D01*
X015708Y001137D01*
X015320Y001137D01*
X015353Y001170D01*
X015414Y001317D01*
X015414Y001357D01*
X015054Y001357D01*
X015054Y001437D01*
X014974Y001437D01*
X014974Y001797D01*
X014934Y001797D01*
X014787Y001736D01*
X014675Y001624D01*
X014614Y001477D01*
X014614Y001437D01*
X014974Y001437D01*
X014974Y001357D01*
X014614Y001357D01*
X014614Y001317D01*
X014675Y001170D01*
X014708Y001137D01*
X014320Y001137D01*
X014353Y001170D01*
X014414Y001317D01*
X014414Y001477D01*
X014353Y001624D01*
X014241Y001736D01*
X014094Y001797D01*
X013934Y001797D01*
X013787Y001736D01*
X013675Y001624D01*
X013614Y001477D01*
X013614Y001317D01*
X013675Y001170D01*
X013708Y001137D01*
X013320Y001137D01*
X013353Y001170D01*
X013414Y001317D01*
X013414Y001477D01*
X013353Y001624D01*
X013241Y001736D01*
X013094Y001797D01*
X012934Y001797D01*
X012787Y001736D01*
X012675Y001624D01*
X012614Y001477D01*
X012614Y001317D01*
X012675Y001170D01*
X012708Y001137D01*
X012320Y001137D01*
X012353Y001170D01*
X012414Y001317D01*
X012414Y001477D01*
X012356Y001617D01*
X012489Y001617D01*
X012594Y001722D01*
X012869Y001997D01*
X013119Y001997D01*
X013269Y001997D01*
X014149Y002877D01*
X014254Y002982D01*
X014254Y003242D01*
X014254Y003392D01*
X014254Y003253D02*
X014535Y003253D01*
X014613Y003175D02*
X014254Y003175D01*
X014254Y003096D02*
X014692Y003096D01*
X014770Y003018D02*
X014254Y003018D01*
X014211Y002939D02*
X014849Y002939D01*
X014928Y002861D02*
X014132Y002861D01*
X014054Y002782D02*
X015006Y002782D01*
X015085Y002704D02*
X013975Y002704D01*
X013896Y002625D02*
X015163Y002625D01*
X015242Y002546D02*
X013818Y002546D01*
X013739Y002468D02*
X015566Y002468D01*
X015698Y002389D02*
X013661Y002389D01*
X013582Y002311D02*
X018846Y002311D01*
X018924Y002232D02*
X013504Y002232D01*
X013425Y002154D02*
X019003Y002154D01*
X019081Y002075D02*
X013347Y002075D01*
X012868Y001997D02*
X019160Y001997D01*
X019238Y001918D02*
X012790Y001918D01*
X012711Y001840D02*
X019317Y001840D01*
X019395Y001761D02*
X019180Y001761D01*
X019294Y001682D02*
X019474Y001682D01*
X019553Y001604D02*
X019361Y001604D01*
X019394Y001525D02*
X019631Y001525D01*
X019614Y001447D02*
X019414Y001447D01*
X019414Y001368D02*
X019614Y001368D01*
X019625Y001290D02*
X019402Y001290D01*
X019370Y001211D02*
X019658Y001211D01*
X020014Y001397D02*
X017694Y003717D01*
X017094Y003717D01*
X016799Y003725D02*
X014629Y003725D01*
X014551Y003803D02*
X016810Y003803D01*
X016843Y003882D02*
X014472Y003882D01*
X014394Y003960D02*
X016920Y003960D01*
X017268Y003960D02*
X021266Y003960D01*
X021266Y003882D02*
X017784Y003882D01*
X017862Y003803D02*
X021266Y003803D01*
X021266Y003725D02*
X017941Y003725D01*
X018019Y003646D02*
X021266Y003646D01*
X021266Y003567D02*
X018098Y003567D01*
X018177Y003489D02*
X021266Y003489D01*
X021266Y003410D02*
X018255Y003410D01*
X018334Y003332D02*
X021266Y003332D01*
X021266Y003253D02*
X018412Y003253D01*
X018491Y003175D02*
X021266Y003175D01*
X021266Y003096D02*
X018569Y003096D01*
X018648Y003018D02*
X021266Y003018D01*
X021266Y002939D02*
X018726Y002939D01*
X018805Y002861D02*
X021266Y002861D01*
X021266Y002782D02*
X018883Y002782D01*
X018962Y002704D02*
X021266Y002704D01*
X021266Y002625D02*
X019041Y002625D01*
X019119Y002546D02*
X021266Y002546D01*
X021266Y002468D02*
X019198Y002468D01*
X019276Y002389D02*
X021266Y002389D01*
X021266Y002311D02*
X019355Y002311D01*
X019433Y002232D02*
X021266Y002232D01*
X021266Y002154D02*
X019512Y002154D01*
X019590Y002075D02*
X021266Y002075D01*
X021266Y001997D02*
X019669Y001997D01*
X019747Y001918D02*
X021266Y001918D01*
X021266Y001840D02*
X019826Y001840D01*
X020180Y001761D02*
X020848Y001761D01*
X020734Y001682D02*
X020294Y001682D01*
X020361Y001604D02*
X020667Y001604D01*
X020634Y001525D02*
X020394Y001525D01*
X020414Y001447D02*
X020614Y001447D01*
X020614Y001368D02*
X020414Y001368D01*
X020402Y001290D02*
X020625Y001290D01*
X020658Y001211D02*
X020370Y001211D01*
X021180Y001761D02*
X021266Y001761D01*
X018848Y001761D02*
X018180Y001761D01*
X018294Y001682D02*
X018734Y001682D01*
X018667Y001604D02*
X018361Y001604D01*
X018394Y001525D02*
X018634Y001525D01*
X018614Y001447D02*
X018414Y001447D01*
X018414Y001368D02*
X018614Y001368D01*
X018625Y001290D02*
X018402Y001290D01*
X018370Y001211D02*
X018658Y001211D01*
X017658Y001211D02*
X017370Y001211D01*
X017402Y001290D02*
X017625Y001290D01*
X017614Y001368D02*
X017414Y001368D01*
X017414Y001447D02*
X017614Y001447D01*
X017634Y001525D02*
X017394Y001525D01*
X017361Y001604D02*
X017667Y001604D01*
X017734Y001682D02*
X017294Y001682D01*
X017180Y001761D02*
X017848Y001761D01*
X016848Y001761D02*
X016180Y001761D01*
X016294Y001682D02*
X016734Y001682D01*
X016667Y001604D02*
X016361Y001604D01*
X016394Y001525D02*
X016634Y001525D01*
X016614Y001447D02*
X016414Y001447D01*
X016414Y001368D02*
X016614Y001368D01*
X016625Y001290D02*
X016402Y001290D01*
X016370Y001211D02*
X016658Y001211D01*
X015658Y001211D02*
X015370Y001211D01*
X015402Y001290D02*
X015625Y001290D01*
X015614Y001368D02*
X015054Y001368D01*
X015054Y001437D02*
X015414Y001437D01*
X015414Y001477D01*
X015353Y001624D01*
X015241Y001736D01*
X015094Y001797D01*
X015054Y001797D01*
X015054Y001437D01*
X015054Y001447D02*
X014974Y001447D01*
X014974Y001525D02*
X015054Y001525D01*
X015054Y001604D02*
X014974Y001604D01*
X014974Y001682D02*
X015054Y001682D01*
X015054Y001761D02*
X014974Y001761D01*
X014848Y001761D02*
X014180Y001761D01*
X014294Y001682D02*
X014734Y001682D01*
X014667Y001604D02*
X014361Y001604D01*
X014394Y001525D02*
X014634Y001525D01*
X014614Y001447D02*
X014414Y001447D01*
X014414Y001368D02*
X014974Y001368D01*
X014658Y001211D02*
X014370Y001211D01*
X014402Y001290D02*
X014625Y001290D01*
X015361Y001604D02*
X015667Y001604D01*
X015634Y001525D02*
X015394Y001525D01*
X015414Y001447D02*
X015614Y001447D01*
X015734Y001682D02*
X015294Y001682D01*
X015180Y001761D02*
X015848Y001761D01*
X015850Y002389D02*
X018767Y002389D01*
X018689Y002468D02*
X015982Y002468D01*
X016039Y002546D02*
X018610Y002546D01*
X018531Y002625D02*
X016069Y002625D01*
X016069Y002704D02*
X018453Y002704D01*
X018374Y002782D02*
X016050Y002782D01*
X016008Y002861D02*
X018296Y002861D01*
X018217Y002939D02*
X015912Y002939D01*
X015636Y002939D02*
X015415Y002939D01*
X015336Y003018D02*
X018139Y003018D01*
X018060Y003096D02*
X015258Y003096D01*
X015179Y003175D02*
X017982Y003175D01*
X017903Y003253D02*
X015101Y003253D01*
X015022Y003332D02*
X017825Y003332D01*
X017746Y003410D02*
X014943Y003410D01*
X014865Y003489D02*
X016905Y003489D01*
X016837Y003567D02*
X014786Y003567D01*
X014708Y003646D02*
X016804Y003646D01*
X017283Y003489D02*
X017668Y003489D01*
X017550Y004196D02*
X021266Y004196D01*
X021266Y004274D02*
X017626Y004274D01*
X017658Y004353D02*
X021266Y004353D01*
X021266Y004431D02*
X017669Y004431D01*
X017663Y004510D02*
X021266Y004510D01*
X021266Y004589D02*
X017631Y004589D01*
X017659Y004667D02*
X021266Y004667D01*
X021266Y004746D02*
X017737Y004746D01*
X017816Y004824D02*
X021266Y004824D01*
X021266Y004903D02*
X017894Y004903D01*
X017973Y004981D02*
X021266Y004981D01*
X021266Y005060D02*
X018051Y005060D01*
X018130Y005138D02*
X021266Y005138D01*
X021266Y005217D02*
X018208Y005217D01*
X018287Y005295D02*
X021266Y005295D01*
X021266Y005374D02*
X018365Y005374D01*
X018444Y005453D02*
X021266Y005453D01*
X021266Y005531D02*
X018523Y005531D01*
X018601Y005610D02*
X021266Y005610D01*
X021266Y005688D02*
X018680Y005688D01*
X018758Y005767D02*
X021266Y005767D01*
X021266Y005845D02*
X018837Y005845D01*
X018794Y006057D02*
X020714Y006057D01*
X021014Y006357D01*
X021014Y007397D01*
X021194Y007023D02*
X021266Y007023D01*
X021266Y006945D02*
X021194Y006945D01*
X021194Y006866D02*
X021266Y006866D01*
X021266Y006788D02*
X021194Y006788D01*
X021194Y006709D02*
X021266Y006709D01*
X021266Y006631D02*
X021194Y006631D01*
X021194Y006552D02*
X021266Y006552D01*
X021266Y006474D02*
X021194Y006474D01*
X021194Y006395D02*
X021266Y006395D01*
X021266Y006316D02*
X021194Y006316D01*
X021149Y006238D02*
X021266Y006238D01*
X021266Y006159D02*
X021071Y006159D01*
X020992Y006081D02*
X021266Y006081D01*
X021266Y006002D02*
X020914Y006002D01*
X020835Y005924D02*
X021266Y005924D01*
X020034Y006437D02*
X020034Y007377D01*
X020014Y007397D01*
X019034Y007377D02*
X019014Y007397D01*
X019034Y007377D02*
X019034Y006817D01*
X017634Y005417D01*
X017314Y005417D01*
X017103Y005210D02*
X017064Y005250D01*
X017019Y005358D01*
X017019Y005476D01*
X017064Y005584D01*
X017147Y005667D01*
X017255Y005712D01*
X017373Y005712D01*
X017481Y005667D01*
X017551Y005597D01*
X017559Y005597D01*
X018854Y006892D01*
X018854Y007030D01*
X018787Y007058D01*
X018675Y007170D01*
X018614Y007317D01*
X018614Y007477D01*
X018675Y007624D01*
X018778Y007727D01*
X018250Y007727D01*
X018353Y007624D01*
X018414Y007477D01*
X018414Y007317D01*
X018353Y007170D01*
X018241Y007058D01*
X018234Y007055D01*
X018234Y006782D01*
X018129Y006677D01*
X017169Y005717D01*
X017051Y005717D01*
X016981Y005647D01*
X016873Y005602D01*
X016755Y005602D01*
X016647Y005647D01*
X016564Y005730D01*
X016519Y005838D01*
X016519Y005956D01*
X016564Y006064D01*
X016647Y006147D01*
X016755Y006192D01*
X016873Y006192D01*
X016981Y006147D01*
X017035Y006093D01*
X017874Y006932D01*
X017874Y007022D01*
X017787Y007058D01*
X017675Y007170D01*
X017614Y007317D01*
X017614Y007477D01*
X017675Y007624D01*
X017778Y007727D01*
X017250Y007727D01*
X017353Y007624D01*
X017414Y007477D01*
X017414Y007317D01*
X017353Y007170D01*
X017241Y007058D01*
X017094Y006997D01*
X016934Y006997D01*
X016787Y007058D01*
X016675Y007170D01*
X016614Y007317D01*
X016614Y007477D01*
X016675Y007624D01*
X016778Y007727D01*
X016250Y007727D01*
X016353Y007624D01*
X016414Y007477D01*
X016414Y007317D01*
X016353Y007170D01*
X016241Y007058D01*
X016094Y006997D01*
X015934Y006997D01*
X015787Y007058D01*
X015675Y007170D01*
X015614Y007317D01*
X015614Y007477D01*
X015675Y007624D01*
X015778Y007727D01*
X015250Y007727D01*
X015353Y007624D01*
X015414Y007477D01*
X015414Y007317D01*
X015353Y007170D01*
X015241Y007058D01*
X015094Y006997D01*
X014934Y006997D01*
X014787Y007058D01*
X014675Y007170D01*
X014614Y007317D01*
X014614Y007477D01*
X014675Y007624D01*
X014778Y007727D01*
X014250Y007727D01*
X014353Y007624D01*
X014414Y007477D01*
X014414Y007317D01*
X014353Y007170D01*
X014314Y007131D01*
X014314Y006792D01*
X015154Y005952D01*
X015154Y005802D01*
X015154Y005614D01*
X015224Y005544D01*
X015269Y005436D01*
X015269Y005318D01*
X015224Y005210D01*
X015141Y005127D01*
X015033Y005082D01*
X014915Y005082D01*
X014807Y005127D01*
X014724Y005210D01*
X014679Y005318D01*
X014679Y005436D01*
X014724Y005544D01*
X014794Y005614D01*
X014794Y005802D01*
X014059Y006537D01*
X013954Y006642D01*
X013954Y006997D01*
X013934Y006997D01*
X013787Y007058D01*
X013675Y007170D01*
X013614Y007317D01*
X013614Y007477D01*
X013675Y007624D01*
X013778Y007727D01*
X013250Y007727D01*
X013353Y007624D01*
X013414Y007477D01*
X013414Y007437D01*
X013054Y007437D01*
X013054Y007357D01*
X013414Y007357D01*
X013414Y007317D01*
X013353Y007170D01*
X013241Y007058D01*
X013094Y006997D01*
X013054Y006997D01*
X013054Y007357D01*
X012974Y007357D01*
X012974Y006997D01*
X012934Y006997D01*
X012841Y007036D01*
X012849Y007016D01*
X012849Y006898D01*
X012804Y006790D01*
X012721Y006707D01*
X012629Y006669D01*
X012629Y006578D01*
X012614Y006543D01*
X012701Y006507D01*
X012784Y006424D01*
X012829Y006316D01*
X012829Y006198D01*
X012784Y006090D01*
X012701Y006007D01*
X012683Y005999D01*
X012709Y005936D01*
X012709Y005818D01*
X012664Y005710D01*
X012581Y005627D01*
X012473Y005582D01*
X012355Y005582D01*
X012247Y005627D01*
X012164Y005710D01*
X012119Y005818D01*
X012119Y005897D01*
X011919Y006097D01*
X011289Y006097D01*
X011139Y006097D01*
X010859Y006377D01*
X009569Y006377D01*
X009419Y006377D01*
X008979Y006817D01*
X008489Y006817D01*
X008339Y006817D01*
X008140Y007016D01*
X008094Y006997D01*
X007934Y006997D01*
X007787Y007058D01*
X007675Y007170D01*
X007614Y007317D01*
X007614Y007477D01*
X007675Y007624D01*
X007778Y007727D01*
X007250Y007727D01*
X007353Y007624D01*
X007414Y007477D01*
X007414Y007317D01*
X007353Y007170D01*
X007262Y007080D01*
X007512Y006830D01*
X007515Y006832D01*
X007633Y006832D01*
X007741Y006787D01*
X007824Y006704D01*
X007869Y006596D01*
X007869Y006497D01*
X008329Y006037D01*
X009289Y006037D01*
X009394Y005932D01*
X009769Y005557D01*
X010129Y005557D01*
X010234Y005452D01*
X010234Y005451D01*
X011009Y004677D01*
X011717Y004677D01*
X011664Y004730D01*
X011619Y004838D01*
X011619Y004956D01*
X011664Y005064D01*
X011747Y005147D01*
X011855Y005192D01*
X011973Y005192D01*
X012081Y005147D01*
X012151Y005077D01*
X012339Y005077D01*
X012469Y005207D01*
X012480Y005217D01*
X011751Y005217D01*
X012479Y005217D01*
X012401Y005138D02*
X012090Y005138D01*
X011751Y005217D02*
X011681Y005147D01*
X011573Y005102D01*
X011455Y005102D01*
X011347Y005147D01*
X011264Y005230D01*
X011219Y005338D01*
X011219Y005456D01*
X011264Y005564D01*
X011347Y005647D01*
X011455Y005692D01*
X011573Y005692D01*
X011681Y005647D01*
X011751Y005577D01*
X012559Y005577D01*
X013039Y006057D01*
X013019Y006077D01*
X012914Y006182D01*
X012914Y006462D01*
X012914Y006612D01*
X013114Y006812D01*
X013219Y006917D01*
X013357Y006917D01*
X013427Y006987D01*
X013535Y007032D01*
X013653Y007032D01*
X013761Y006987D01*
X013844Y006904D01*
X013889Y006796D01*
X013889Y006678D01*
X013844Y006570D01*
X013761Y006487D01*
X013708Y006465D01*
X013729Y006416D01*
X013729Y006298D01*
X013694Y006214D01*
X013694Y006202D01*
X013694Y005922D01*
X013688Y005917D01*
X013689Y005917D01*
X013789Y005817D01*
X013859Y005817D01*
X014009Y005817D01*
X014014Y005812D01*
X014113Y005812D01*
X014221Y005767D01*
X014304Y005684D01*
X014349Y005576D01*
X014349Y005458D01*
X014304Y005350D01*
X014221Y005267D01*
X014113Y005222D01*
X014026Y005222D01*
X014044Y005204D01*
X014089Y005096D01*
X014089Y005025D01*
X014154Y004960D01*
X014154Y004794D01*
X014154Y004334D01*
X014184Y004304D01*
X014229Y004196D01*
X014237Y004117D02*
X021266Y004117D01*
X021266Y004039D02*
X014315Y004039D01*
X014196Y004274D02*
X017122Y004274D01*
X017124Y004270D02*
X017207Y004187D01*
X017124Y004270D02*
X017079Y004378D01*
X017079Y004496D01*
X017124Y004604D01*
X017162Y004642D01*
X017155Y004642D01*
X017047Y004687D01*
X016964Y004770D01*
X016919Y004878D01*
X016919Y004996D01*
X016964Y005104D01*
X017047Y005187D01*
X017103Y005210D01*
X017097Y005217D02*
X015227Y005217D01*
X015259Y005295D02*
X017045Y005295D01*
X017019Y005374D02*
X015269Y005374D01*
X015262Y005453D02*
X017019Y005453D01*
X017042Y005531D02*
X015229Y005531D01*
X015159Y005610D02*
X016737Y005610D01*
X016606Y005688D02*
X015154Y005688D01*
X015154Y005767D02*
X016549Y005767D01*
X016519Y005845D02*
X015154Y005845D01*
X015154Y005924D02*
X016519Y005924D01*
X016538Y006002D02*
X015103Y006002D01*
X015025Y006081D02*
X016581Y006081D01*
X016677Y006159D02*
X014946Y006159D01*
X014868Y006238D02*
X017180Y006238D01*
X017102Y006159D02*
X016951Y006159D01*
X017259Y006316D02*
X014789Y006316D01*
X014710Y006395D02*
X017338Y006395D01*
X017416Y006474D02*
X014632Y006474D01*
X014553Y006552D02*
X017495Y006552D01*
X017573Y006631D02*
X014475Y006631D01*
X014396Y006709D02*
X017652Y006709D01*
X017730Y006788D02*
X014318Y006788D01*
X014314Y006866D02*
X017809Y006866D01*
X017874Y006945D02*
X014314Y006945D01*
X014314Y007023D02*
X014871Y007023D01*
X014743Y007102D02*
X014314Y007102D01*
X014357Y007180D02*
X014671Y007180D01*
X014638Y007259D02*
X014390Y007259D01*
X014414Y007338D02*
X014614Y007338D01*
X014614Y007416D02*
X014414Y007416D01*
X014406Y007495D02*
X014622Y007495D01*
X014654Y007573D02*
X014374Y007573D01*
X014325Y007652D02*
X014703Y007652D01*
X015325Y007652D02*
X015703Y007652D01*
X015654Y007573D02*
X015374Y007573D01*
X015406Y007495D02*
X015622Y007495D01*
X015614Y007416D02*
X015414Y007416D01*
X015414Y007338D02*
X015614Y007338D01*
X015638Y007259D02*
X015390Y007259D01*
X015357Y007180D02*
X015671Y007180D01*
X015743Y007102D02*
X015285Y007102D01*
X015157Y007023D02*
X015871Y007023D01*
X016157Y007023D02*
X016871Y007023D01*
X016743Y007102D02*
X016285Y007102D01*
X016357Y007180D02*
X016671Y007180D01*
X016638Y007259D02*
X016390Y007259D01*
X016414Y007338D02*
X016614Y007338D01*
X016614Y007416D02*
X016414Y007416D01*
X016406Y007495D02*
X016622Y007495D01*
X016654Y007573D02*
X016374Y007573D01*
X016325Y007652D02*
X016703Y007652D01*
X017325Y007652D02*
X017703Y007652D01*
X017654Y007573D02*
X017374Y007573D01*
X017406Y007495D02*
X017622Y007495D01*
X017614Y007416D02*
X017414Y007416D01*
X017414Y007338D02*
X017614Y007338D01*
X017638Y007259D02*
X017390Y007259D01*
X017357Y007180D02*
X017671Y007180D01*
X017743Y007102D02*
X017285Y007102D01*
X017157Y007023D02*
X017871Y007023D01*
X018054Y006857D02*
X018054Y007357D01*
X018014Y007397D01*
X018406Y007495D02*
X018622Y007495D01*
X018614Y007416D02*
X018414Y007416D01*
X018414Y007338D02*
X018614Y007338D01*
X018638Y007259D02*
X018390Y007259D01*
X018357Y007180D02*
X018671Y007180D01*
X018743Y007102D02*
X018285Y007102D01*
X018234Y007023D02*
X018854Y007023D01*
X018854Y006945D02*
X018234Y006945D01*
X018234Y006866D02*
X018829Y006866D01*
X018750Y006788D02*
X018234Y006788D01*
X018161Y006709D02*
X018672Y006709D01*
X018593Y006631D02*
X018082Y006631D01*
X018004Y006552D02*
X018515Y006552D01*
X018436Y006474D02*
X017925Y006474D01*
X017847Y006395D02*
X018358Y006395D01*
X018279Y006316D02*
X017768Y006316D01*
X017689Y006238D02*
X018200Y006238D01*
X018122Y006159D02*
X017611Y006159D01*
X017532Y006081D02*
X018043Y006081D01*
X017965Y006002D02*
X017454Y006002D01*
X017375Y005924D02*
X017886Y005924D01*
X017808Y005845D02*
X017297Y005845D01*
X017218Y005767D02*
X017729Y005767D01*
X017651Y005688D02*
X017430Y005688D01*
X017539Y005610D02*
X017572Y005610D01*
X017198Y005688D02*
X017022Y005688D01*
X017089Y005610D02*
X016891Y005610D01*
X016814Y005897D02*
X017094Y005897D01*
X018054Y006857D01*
X018794Y006337D02*
X019934Y006337D01*
X020034Y006437D01*
X018794Y006337D02*
X017394Y004937D01*
X017214Y004937D01*
X016941Y004824D02*
X014154Y004824D01*
X014154Y004746D02*
X016988Y004746D01*
X017095Y004667D02*
X014154Y004667D01*
X014154Y004589D02*
X017118Y004589D01*
X017085Y004510D02*
X014154Y004510D01*
X014154Y004431D02*
X017079Y004431D01*
X017090Y004353D02*
X014154Y004353D01*
X013754Y004374D02*
X013684Y004304D01*
X013639Y004196D01*
X013639Y004117D02*
X012209Y004117D01*
X012130Y004039D02*
X013655Y004039D01*
X013694Y003960D02*
X009925Y003960D01*
X009623Y003960D02*
X009454Y003960D01*
X009454Y004039D02*
X009535Y004039D01*
X009496Y004117D02*
X009416Y004117D01*
X009479Y004196D02*
X009337Y004196D01*
X009259Y004274D02*
X009479Y004274D01*
X009511Y004353D02*
X008864Y004353D01*
X008943Y004431D02*
X009571Y004431D01*
X009711Y004510D02*
X009021Y004510D01*
X009100Y004589D02*
X010588Y004589D01*
X010509Y004667D02*
X009179Y004667D01*
X009257Y004746D02*
X010431Y004746D01*
X010352Y004824D02*
X009438Y004824D01*
X009577Y004903D02*
X010274Y004903D01*
X010195Y004981D02*
X009637Y004981D01*
X009669Y005060D02*
X010117Y005060D01*
X010038Y005138D02*
X009669Y005138D01*
X009374Y005117D02*
X008714Y004457D01*
X007534Y004457D01*
X008256Y004277D02*
X008639Y004277D01*
X008772Y004277D01*
X008574Y004079D01*
X008574Y003937D01*
X008974Y003937D01*
X008974Y003857D01*
X008574Y003857D01*
X008574Y003715D01*
X008712Y003577D01*
X008316Y003577D01*
X008454Y003715D01*
X008454Y004079D01*
X008256Y004277D01*
X008259Y004274D02*
X008769Y004274D01*
X008691Y004196D02*
X008337Y004196D01*
X008416Y004117D02*
X008612Y004117D01*
X008574Y004039D02*
X008454Y004039D01*
X008454Y003960D02*
X008574Y003960D01*
X008454Y003882D02*
X008974Y003882D01*
X008974Y003960D02*
X009054Y003960D01*
X009054Y003882D02*
X013780Y003882D01*
X013985Y003803D02*
X012022Y003803D01*
X012124Y003725D02*
X013704Y003725D01*
X013636Y003646D02*
X012168Y003646D01*
X012189Y003567D02*
X013604Y003567D01*
X013599Y003489D02*
X012189Y003489D01*
X012161Y003410D02*
X013611Y003410D01*
X013643Y003332D02*
X012136Y003332D01*
X012555Y003253D02*
X013721Y003253D01*
X013894Y003175D02*
X012628Y003175D01*
X012660Y003096D02*
X013859Y003096D01*
X013780Y003018D02*
X012747Y003018D01*
X012869Y002939D02*
X013702Y002939D01*
X013623Y002861D02*
X012922Y002861D01*
X012949Y002782D02*
X013545Y002782D01*
X013466Y002704D02*
X012949Y002704D01*
X012533Y002468D02*
X010679Y002468D01*
X011674Y002837D02*
X012194Y002837D01*
X012374Y003017D01*
X011894Y003537D02*
X011854Y003577D01*
X009834Y003577D01*
X009654Y003397D01*
X005514Y003397D01*
X005014Y002897D01*
X005454Y002861D02*
X005574Y002861D01*
X005574Y002939D02*
X005454Y002939D01*
X005454Y003018D02*
X005574Y003018D01*
X005591Y003096D02*
X005468Y003096D01*
X005546Y003175D02*
X005670Y003175D01*
X005054Y003489D02*
X004974Y003489D01*
X004974Y003567D02*
X005054Y003567D01*
X005054Y003646D02*
X004974Y003646D01*
X004974Y003725D02*
X005054Y003725D01*
X004721Y003567D02*
X000894Y003567D01*
X000894Y003489D02*
X004800Y003489D01*
X004827Y003332D02*
X002720Y003332D01*
X002799Y003253D02*
X004748Y003253D01*
X004670Y003175D02*
X002848Y003175D01*
X002881Y003096D02*
X004591Y003096D01*
X004574Y003018D02*
X002891Y003018D01*
X002891Y002939D02*
X004574Y002939D01*
X004574Y002861D02*
X002873Y002861D01*
X002840Y002782D02*
X004574Y002782D01*
X004585Y002704D02*
X002779Y002704D01*
X002688Y002625D02*
X004664Y002625D01*
X005207Y002468D02*
X005821Y002468D01*
X005742Y002546D02*
X005286Y002546D01*
X005364Y002625D02*
X005664Y002625D01*
X005585Y002704D02*
X005443Y002704D01*
X005454Y002782D02*
X005574Y002782D01*
X004643Y003646D02*
X000894Y003646D01*
X000894Y003725D02*
X004574Y003725D01*
X004574Y003803D02*
X000894Y003803D01*
X000894Y004039D02*
X002211Y004039D01*
X002133Y004117D02*
X000894Y004117D01*
X000894Y004196D02*
X002093Y004196D01*
X002060Y004274D02*
X000894Y004274D01*
X000894Y004353D02*
X002057Y004353D01*
X002057Y004431D02*
X000894Y004431D01*
X000894Y004510D02*
X002082Y004510D01*
X002115Y004589D02*
X000894Y004589D01*
X000894Y004667D02*
X002185Y004667D01*
X002301Y004746D02*
X000894Y004746D01*
X005654Y006017D02*
X005994Y005677D01*
X005994Y004477D01*
X006267Y004589D02*
X006394Y004589D01*
X006473Y004667D02*
X006221Y004667D01*
X006174Y004746D02*
X006552Y004746D01*
X006630Y004824D02*
X006174Y004824D01*
X006174Y004903D02*
X006709Y004903D01*
X006787Y004981D02*
X006174Y004981D01*
X006174Y005060D02*
X006866Y005060D01*
X006174Y005138D02*
X008464Y005138D01*
X008543Y005217D02*
X006174Y005217D01*
X006174Y005295D02*
X008621Y005295D01*
X008700Y005374D02*
X006174Y005374D01*
X006174Y005453D02*
X008739Y005453D01*
X008770Y005531D02*
X006174Y005531D01*
X006174Y005610D02*
X008829Y005610D01*
X009214Y005857D02*
X008254Y005857D01*
X007574Y006537D01*
X007869Y006552D02*
X009244Y006552D01*
X009166Y006631D02*
X007854Y006631D01*
X007819Y006709D02*
X009087Y006709D01*
X009009Y006788D02*
X007739Y006788D01*
X007476Y006866D02*
X008290Y006866D01*
X008212Y006945D02*
X007397Y006945D01*
X007319Y007023D02*
X007871Y007023D01*
X007743Y007102D02*
X007285Y007102D01*
X007357Y007180D02*
X007671Y007180D01*
X007638Y007259D02*
X007390Y007259D01*
X007414Y007338D02*
X007614Y007338D01*
X007614Y007416D02*
X007414Y007416D01*
X007406Y007495D02*
X007622Y007495D01*
X007654Y007573D02*
X007374Y007573D01*
X007325Y007652D02*
X007703Y007652D01*
X008014Y007397D02*
X008414Y006997D01*
X009054Y006997D01*
X009494Y006557D01*
X010934Y006557D01*
X011214Y006277D01*
X011994Y006277D01*
X012314Y005957D01*
X012414Y005877D01*
X012709Y005845D02*
X012828Y005845D01*
X012749Y005767D02*
X012688Y005767D01*
X012671Y005688D02*
X012642Y005688D01*
X012592Y005610D02*
X012539Y005610D01*
X012289Y005610D02*
X011719Y005610D01*
X011582Y005688D02*
X012186Y005688D01*
X012140Y005767D02*
X009559Y005767D01*
X009480Y005845D02*
X012119Y005845D01*
X012093Y005924D02*
X009402Y005924D01*
X009323Y006002D02*
X012014Y006002D01*
X011936Y006081D02*
X008285Y006081D01*
X008206Y006159D02*
X011077Y006159D01*
X010999Y006238D02*
X008128Y006238D01*
X008049Y006316D02*
X010920Y006316D01*
X011334Y006437D02*
X011014Y006757D01*
X010394Y006757D01*
X010134Y007017D01*
X009394Y007017D01*
X009014Y007397D01*
X010014Y007397D02*
X010034Y007377D01*
X010434Y007377D01*
X010874Y006937D01*
X011074Y006937D01*
X011374Y006637D01*
X012334Y006637D01*
X012629Y006631D02*
X012933Y006631D01*
X012914Y006552D02*
X012618Y006552D01*
X012735Y006474D02*
X012914Y006474D01*
X012914Y006395D02*
X012796Y006395D01*
X012829Y006316D02*
X012914Y006316D01*
X012914Y006238D02*
X012829Y006238D01*
X012813Y006159D02*
X012937Y006159D01*
X013016Y006081D02*
X012775Y006081D01*
X012690Y006002D02*
X012985Y006002D01*
X012906Y005924D02*
X012709Y005924D01*
X013094Y006257D02*
X013234Y006117D01*
X013234Y005997D01*
X012634Y005397D01*
X011514Y005397D01*
X011237Y005295D02*
X010390Y005295D01*
X010469Y005217D02*
X011277Y005217D01*
X011368Y005138D02*
X010547Y005138D01*
X010626Y005060D02*
X011662Y005060D01*
X011660Y005138D02*
X011738Y005138D01*
X011630Y004981D02*
X010704Y004981D01*
X010783Y004903D02*
X011619Y004903D01*
X011625Y004824D02*
X010861Y004824D01*
X010940Y004746D02*
X011657Y004746D01*
X011914Y004897D02*
X012414Y004897D01*
X012544Y005027D01*
X013514Y005997D01*
X013514Y006277D01*
X013434Y006357D01*
X013704Y006238D02*
X014359Y006238D01*
X014437Y006159D02*
X013694Y006159D01*
X013694Y006081D02*
X014516Y006081D01*
X014594Y006002D02*
X013694Y006002D01*
X013694Y005924D02*
X014673Y005924D01*
X014751Y005845D02*
X013760Y005845D01*
X013614Y005737D02*
X013714Y005637D01*
X013934Y005637D01*
X014054Y005517D01*
X013761Y005453D02*
X013484Y005453D01*
X013563Y005531D02*
X013565Y005531D01*
X013564Y005532D02*
X013639Y005457D01*
X013760Y005457D01*
X013804Y005350D01*
X013822Y005332D01*
X013735Y005332D01*
X013627Y005287D01*
X013544Y005204D01*
X013499Y005096D01*
X013499Y004978D01*
X013544Y004870D01*
X013627Y004787D01*
X013735Y004742D01*
X013754Y004742D01*
X013754Y004374D01*
X013733Y004353D02*
X013505Y004353D01*
X013504Y004350D02*
X013549Y004458D01*
X013549Y004576D01*
X013504Y004684D01*
X013421Y004767D01*
X013313Y004812D01*
X013195Y004812D01*
X013087Y004767D01*
X013004Y004684D01*
X012976Y004617D01*
X012648Y004617D01*
X012674Y004642D01*
X013564Y005532D01*
X013514Y005737D02*
X013614Y005737D01*
X013514Y005737D02*
X012494Y004717D01*
X012214Y004717D01*
X011994Y004497D01*
X010934Y004497D01*
X010054Y005377D01*
X009694Y005377D01*
X009214Y005857D01*
X009637Y005688D02*
X011446Y005688D01*
X011309Y005610D02*
X009716Y005610D01*
X010154Y005531D02*
X011250Y005531D01*
X011219Y005453D02*
X010233Y005453D01*
X010312Y005374D02*
X011219Y005374D01*
X012474Y004957D02*
X012544Y005027D01*
X012856Y004824D02*
X013590Y004824D01*
X013530Y004903D02*
X012934Y004903D01*
X013013Y004981D02*
X013499Y004981D01*
X013499Y005060D02*
X013091Y005060D01*
X013170Y005138D02*
X013517Y005138D01*
X013557Y005217D02*
X013248Y005217D01*
X013327Y005295D02*
X013647Y005295D01*
X013794Y005374D02*
X013406Y005374D01*
X014031Y005217D02*
X014721Y005217D01*
X014688Y005295D02*
X014250Y005295D01*
X014314Y005374D02*
X014679Y005374D01*
X014686Y005453D02*
X014347Y005453D01*
X014349Y005531D02*
X014719Y005531D01*
X014789Y005610D02*
X014335Y005610D01*
X014300Y005688D02*
X014794Y005688D01*
X014794Y005767D02*
X014221Y005767D01*
X014974Y005877D02*
X014974Y005377D01*
X014795Y005138D02*
X014071Y005138D01*
X014089Y005060D02*
X016946Y005060D01*
X016919Y004981D02*
X014133Y004981D01*
X014154Y004903D02*
X016919Y004903D01*
X016998Y005138D02*
X015153Y005138D01*
X013754Y004667D02*
X013511Y004667D01*
X013544Y004589D02*
X013754Y004589D01*
X013754Y004510D02*
X013549Y004510D01*
X013538Y004431D02*
X013754Y004431D01*
X013504Y004350D02*
X013421Y004267D01*
X013313Y004222D01*
X013195Y004222D01*
X013111Y004257D01*
X013099Y004257D01*
X012349Y004257D01*
X012274Y004437D02*
X013174Y004437D01*
X013254Y004517D01*
X012997Y004667D02*
X012699Y004667D01*
X012777Y004746D02*
X013065Y004746D01*
X013443Y004746D02*
X013727Y004746D01*
X013672Y004274D02*
X013429Y004274D01*
X012274Y004437D02*
X012054Y004217D01*
X009774Y004217D01*
X009977Y004431D02*
X010745Y004431D01*
X010666Y004510D02*
X009837Y004510D01*
X009054Y004274D02*
X008974Y004274D01*
X008974Y004196D02*
X009054Y004196D01*
X009054Y004117D02*
X008974Y004117D01*
X008974Y004039D02*
X009054Y004039D01*
X009454Y003803D02*
X011766Y003803D01*
X009727Y003725D02*
X009454Y003725D01*
X009385Y003646D02*
X009649Y003646D01*
X008643Y003646D02*
X008385Y003646D01*
X008454Y003725D02*
X008574Y003725D01*
X008574Y003803D02*
X008454Y003803D01*
X009454Y002939D02*
X009802Y002939D01*
X009723Y002861D02*
X009454Y002861D01*
X009454Y002782D02*
X009645Y002782D01*
X009566Y002704D02*
X009443Y002704D01*
X009487Y002625D02*
X009364Y002625D01*
X009409Y002546D02*
X009286Y002546D01*
X009330Y002468D02*
X009207Y002468D01*
X006848Y001761D02*
X006368Y001761D01*
X006414Y001682D02*
X006734Y001682D01*
X006667Y001604D02*
X006414Y001604D01*
X006414Y001525D02*
X006634Y001525D01*
X006614Y001447D02*
X006414Y001447D01*
X006614Y001368D02*
X006054Y001368D01*
X006054Y001447D02*
X005974Y001447D01*
X005974Y001525D02*
X006054Y001525D01*
X006054Y001604D02*
X005974Y001604D01*
X005974Y001682D02*
X006054Y001682D01*
X006054Y001761D02*
X005974Y001761D01*
X005660Y001761D02*
X000894Y001761D01*
X000894Y001682D02*
X005614Y001682D01*
X005614Y001604D02*
X000894Y001604D01*
X000894Y001525D02*
X005614Y001525D01*
X005614Y001447D02*
X000894Y001447D01*
X000894Y001368D02*
X005974Y001368D01*
X005614Y001290D02*
X000894Y001290D01*
X000894Y001211D02*
X005614Y001211D01*
X006414Y001211D02*
X006658Y001211D01*
X006625Y001290D02*
X006414Y001290D01*
X000894Y001997D02*
X012359Y001997D01*
X012633Y001761D02*
X012848Y001761D01*
X012734Y001682D02*
X012554Y001682D01*
X012667Y001604D02*
X012361Y001604D01*
X012394Y001525D02*
X012634Y001525D01*
X012614Y001447D02*
X012414Y001447D01*
X012414Y001368D02*
X012614Y001368D01*
X012625Y001290D02*
X012402Y001290D01*
X012370Y001211D02*
X012658Y001211D01*
X013370Y001211D02*
X013658Y001211D01*
X013625Y001290D02*
X013402Y001290D01*
X013414Y001368D02*
X013614Y001368D01*
X013614Y001447D02*
X013414Y001447D01*
X013394Y001525D02*
X013634Y001525D01*
X013667Y001604D02*
X013361Y001604D01*
X013294Y001682D02*
X013734Y001682D01*
X013848Y001761D02*
X013180Y001761D01*
X014184Y003567D02*
X014221Y003567D01*
X017374Y004437D02*
X017374Y004637D01*
X018794Y006057D01*
X018654Y007573D02*
X018374Y007573D01*
X018325Y007652D02*
X018703Y007652D01*
X014974Y005877D02*
X014134Y006717D01*
X014134Y007277D01*
X014014Y007397D01*
X013638Y007259D02*
X013390Y007259D01*
X013414Y007338D02*
X013614Y007338D01*
X013614Y007416D02*
X013054Y007416D01*
X013054Y007338D02*
X012974Y007338D01*
X012974Y007357D02*
X012614Y007357D01*
X012614Y007317D01*
X012647Y007238D01*
X012613Y007252D01*
X012495Y007252D01*
X012387Y007207D01*
X012355Y007175D01*
X012414Y007317D01*
X012414Y007477D01*
X012353Y007624D01*
X012250Y007727D01*
X012778Y007727D01*
X012675Y007624D01*
X012614Y007477D01*
X012614Y007437D01*
X012974Y007437D01*
X012974Y007357D01*
X012974Y007416D02*
X012414Y007416D01*
X012414Y007338D02*
X012614Y007338D01*
X012638Y007259D02*
X012390Y007259D01*
X012360Y007180D02*
X012357Y007180D01*
X012846Y007023D02*
X012871Y007023D01*
X012849Y006945D02*
X013385Y006945D01*
X013515Y007023D02*
X013157Y007023D01*
X013054Y007023D02*
X012974Y007023D01*
X012974Y007102D02*
X013054Y007102D01*
X013054Y007180D02*
X012974Y007180D01*
X012974Y007259D02*
X013054Y007259D01*
X013285Y007102D02*
X013743Y007102D01*
X013673Y007023D02*
X013871Y007023D01*
X013803Y006945D02*
X013954Y006945D01*
X013954Y006866D02*
X013860Y006866D01*
X013889Y006788D02*
X013954Y006788D01*
X013954Y006709D02*
X013889Y006709D01*
X013869Y006631D02*
X013966Y006631D01*
X014044Y006552D02*
X013826Y006552D01*
X013729Y006474D02*
X014123Y006474D01*
X014201Y006395D02*
X013729Y006395D01*
X013729Y006316D02*
X014280Y006316D01*
X013594Y006737D02*
X013294Y006737D01*
X013094Y006537D01*
X013094Y006257D01*
X012534Y006257D02*
X012274Y006257D01*
X012094Y006437D01*
X011334Y006437D01*
X011454Y006957D02*
X011014Y007397D01*
X011454Y006957D02*
X012554Y006957D01*
X012836Y006866D02*
X013169Y006866D01*
X013090Y006788D02*
X012802Y006788D01*
X012723Y006709D02*
X013012Y006709D01*
X013357Y007180D02*
X013671Y007180D01*
X013622Y007495D02*
X013406Y007495D01*
X013374Y007573D02*
X013654Y007573D01*
X013703Y007652D02*
X013325Y007652D01*
X012703Y007652D02*
X012325Y007652D01*
X012374Y007573D02*
X012654Y007573D01*
X012622Y007495D02*
X012406Y007495D01*
X009401Y006395D02*
X007970Y006395D01*
X007892Y006474D02*
X009323Y006474D01*
X007933Y005924D02*
X006002Y005924D01*
X005949Y006002D02*
X007854Y006002D01*
X007776Y006081D02*
X005947Y006081D01*
X005914Y006159D02*
X007697Y006159D01*
X007619Y006238D02*
X005850Y006238D01*
X006080Y005845D02*
X008011Y005845D01*
X008090Y005767D02*
X006159Y005767D01*
X006174Y005688D02*
X008168Y005688D01*
X006316Y004510D02*
X006289Y004510D01*
X006406Y007495D02*
X006622Y007495D01*
X006654Y007573D02*
X006374Y007573D01*
X006325Y007652D02*
X006703Y007652D01*
D16*
X013794Y005037D02*
X013954Y004877D01*
X013954Y004117D01*
X015394Y002677D01*
X015774Y002677D01*
X013954Y004117D02*
X013934Y004137D01*
M02*
