%
M48
M72
T01C0.0150
T02C0.0320
T03C0.0354
T04C0.0400
%
T01
X4174Y2617
X7534Y4457
X5994Y4477
X7814Y5237
X9034Y5397
X9374Y5117
X9774Y4217
X11894Y3537
X11934Y3117
X12374Y3017
X12654Y2737
X13894Y3497
X13934Y4137
X13254Y4517
X13794Y5037
X14054Y5517
X14974Y5377
X16814Y5897
X17314Y5417
X17214Y4937
X17374Y4437
X17094Y3717
X15774Y2677
X17074Y1977
X11914Y4897
X11514Y5397
X12414Y5877
X12534Y6257
X12334Y6637
X12554Y6957
X13594Y6737
X13434Y6357
X8774Y6677
X7574Y6537
X5654Y6017
X4334Y7237
X2454Y5677
X9654Y2917
X9874Y2317
X20014Y4997
X20714Y4997
T02
X6014Y1397
X7014Y1397
X8014Y1397
X9014Y1397
X10014Y1397
X11014Y1397
X12014Y1397
X13014Y1397
X14014Y1397
X15014Y1397
X16014Y1397
X17014Y1397
X18014Y1397
X19014Y1397
X20014Y1397
X21014Y1397
X21014Y7397
X20014Y7397
X19014Y7397
X18014Y7397
X17014Y7397
X16014Y7397
X15014Y7397
X14014Y7397
X13014Y7397
X12014Y7397
X11014Y7397
X10014Y7397
X9014Y7397
X8014Y7397
X7014Y7397
X6014Y7397
T03
X2474Y4366
X2474Y2988
T04
X5014Y2897
X6014Y2897
X7014Y2897
X8014Y2897
X9014Y2897
X9014Y3897
X8014Y3897
X7014Y3897
X6014Y3897
X5014Y3897
M30
