G75*
G70*
%OFA0B0*%
%FSLAX24Y24*%
%IPPOS*%
%LPD*%
%AMOC8*
5,1,8,0,0,1.08239X$1,22.5*
%
%ADD10C,0.0080*%
%ADD11C,0.0050*%
%ADD12C,0.0060*%
%ADD13C,0.0030*%
%ADD14C,0.0040*%
%ADD15C,0.0010*%
%ADD16R,0.0200X0.0200*%
D10*
X002994Y001297D02*
X005094Y001297D01*
X005094Y001557D01*
X005264Y002147D02*
X004764Y002147D01*
X003773Y002457D02*
X003773Y002811D01*
X002789Y002181D02*
X001962Y002181D01*
X003773Y004543D02*
X003773Y004897D01*
X002789Y005173D02*
X001962Y005173D01*
X002208Y006943D02*
X002759Y006943D01*
X002759Y007731D01*
X002208Y007731D01*
X001932Y007573D02*
X001696Y007337D01*
X001932Y007101D01*
X001932Y007573D01*
X001696Y007613D02*
X001696Y007337D01*
X001696Y007061D01*
X001420Y006943D02*
X000869Y006943D01*
X000869Y007731D01*
X001420Y007731D01*
X017114Y006997D02*
X017114Y002097D01*
X018314Y002097D01*
X018414Y005697D02*
X018414Y006997D01*
X017114Y006997D01*
D11*
X017382Y006810D02*
X017716Y006810D01*
X017782Y006744D01*
X017782Y006677D01*
X017839Y006667D02*
X017839Y006550D01*
X017897Y006492D01*
X017956Y006725D02*
X018189Y006492D01*
X018189Y006725D01*
X017956Y006725D02*
X017897Y006725D01*
X017839Y006667D01*
X017649Y006610D02*
X017649Y006810D01*
X017649Y006610D02*
X017582Y006543D01*
X017382Y006543D01*
X017382Y006398D02*
X017382Y006332D01*
X017516Y006198D01*
X017649Y006198D02*
X017382Y006198D01*
X017382Y006051D02*
X017382Y005851D01*
X017449Y005784D01*
X017582Y005784D01*
X017649Y005851D01*
X017649Y006051D01*
X017249Y006051D01*
X017839Y005930D02*
X017897Y005989D01*
X018014Y005989D01*
X018072Y005930D01*
X018072Y005755D01*
X018189Y005755D02*
X017839Y005755D01*
X017839Y005930D01*
X018072Y005872D02*
X018189Y005989D01*
X018131Y006124D02*
X018189Y006182D01*
X018189Y006299D01*
X018131Y006357D01*
X018072Y006357D01*
X018014Y006299D01*
X018014Y006240D01*
X018014Y006299D02*
X017956Y006357D01*
X017897Y006357D01*
X017839Y006299D01*
X017839Y006182D01*
X017897Y006124D01*
X017839Y005621D02*
X018072Y005621D01*
X018189Y005504D01*
X018072Y005387D01*
X017839Y005387D01*
X017956Y005252D02*
X018189Y005252D01*
X018014Y005252D02*
X018014Y005019D01*
X017956Y005019D02*
X018189Y005019D01*
X017956Y005019D02*
X017839Y005135D01*
X017956Y005252D01*
X017649Y005222D02*
X017382Y005222D01*
X017649Y005222D02*
X017649Y005022D01*
X017582Y004955D01*
X017382Y004955D01*
X017449Y004808D02*
X017382Y004741D01*
X017382Y004608D01*
X017449Y004541D01*
X017582Y004541D01*
X017649Y004608D01*
X017649Y004741D01*
X017582Y004808D01*
X017449Y004808D01*
X017956Y004519D02*
X017956Y004460D01*
X018072Y004344D01*
X017956Y004344D02*
X018189Y004344D01*
X018072Y004209D02*
X018072Y003975D01*
X018014Y003975D02*
X017956Y004034D01*
X017956Y004150D01*
X018014Y004209D01*
X018072Y004209D01*
X018189Y004150D02*
X018189Y004034D01*
X018131Y003975D01*
X018014Y003975D01*
X018345Y004043D02*
X018345Y004751D01*
X017249Y004393D02*
X017249Y004126D01*
X017649Y004126D01*
X017449Y004126D02*
X017449Y004260D01*
X017382Y003981D02*
X017516Y003781D01*
X017649Y003981D01*
X017649Y003781D02*
X017249Y003781D01*
X017382Y003634D02*
X017382Y003434D01*
X017449Y003367D01*
X017582Y003367D01*
X017649Y003434D01*
X017649Y003634D01*
X017956Y003607D02*
X017956Y003782D01*
X018014Y003840D01*
X018131Y003840D01*
X018189Y003782D01*
X018189Y003607D01*
X018306Y003607D02*
X017956Y003607D01*
X018014Y003472D02*
X017956Y003414D01*
X017956Y003239D01*
X018306Y003239D01*
X018189Y003239D02*
X018189Y003414D01*
X018131Y003472D01*
X018014Y003472D01*
X017649Y003219D02*
X017449Y003219D01*
X017382Y003153D01*
X017382Y003019D01*
X017516Y003019D02*
X017516Y003219D01*
X017649Y003219D02*
X017649Y003019D01*
X017582Y002953D01*
X017516Y003019D01*
X017649Y002810D02*
X017582Y002743D01*
X017315Y002743D01*
X017382Y002676D02*
X017382Y002810D01*
X017839Y002677D02*
X017839Y002560D01*
X017897Y002502D01*
X018131Y002502D01*
X018189Y002560D01*
X018189Y002677D01*
X018131Y002736D01*
X018131Y002870D02*
X018189Y002929D01*
X018189Y003045D01*
X018131Y003104D01*
X018014Y003104D01*
X017956Y003045D01*
X017956Y002929D01*
X018014Y002870D01*
X018131Y002870D01*
X017897Y002736D02*
X017839Y002677D01*
X017649Y002462D02*
X017649Y002329D01*
X017582Y002262D01*
X017449Y002329D02*
X017449Y002462D01*
X017516Y002529D01*
X017582Y002529D01*
X017649Y002462D01*
X017449Y002329D02*
X017382Y002262D01*
X017315Y002262D01*
X017249Y002329D01*
X017249Y002462D01*
X017315Y002529D01*
X018328Y002105D02*
X018328Y003129D01*
X020060Y003129D01*
X020060Y002105D01*
X018328Y002105D01*
X020979Y001999D02*
X021096Y001882D01*
X021212Y001882D01*
X021329Y001999D01*
X021271Y002128D02*
X021154Y002128D01*
X021096Y002186D01*
X021096Y002361D01*
X021329Y002361D02*
X021329Y002186D01*
X021271Y002128D01*
X021329Y002496D02*
X021212Y002613D01*
X021096Y002613D01*
X020979Y002496D01*
X021037Y003110D02*
X020979Y003168D01*
X020979Y003285D01*
X021037Y003343D01*
X021096Y003343D01*
X021329Y003110D01*
X021329Y003343D01*
X021271Y003478D02*
X021037Y003478D01*
X020979Y003536D01*
X020979Y003653D01*
X021037Y003711D01*
X021271Y003478D01*
X021329Y003536D01*
X021329Y003653D01*
X021271Y003711D01*
X021037Y003711D01*
X021037Y003846D02*
X020979Y003905D01*
X020979Y004021D01*
X021037Y004080D01*
X021271Y003846D01*
X021329Y003905D01*
X021329Y004021D01*
X021271Y004080D01*
X021037Y004080D01*
X021037Y004215D02*
X020979Y004273D01*
X020979Y004390D01*
X021037Y004448D01*
X021271Y004448D01*
X021329Y004390D01*
X021329Y004273D01*
X021271Y004215D01*
X021154Y004273D02*
X021154Y004448D01*
X021154Y004273D02*
X021096Y004215D01*
X021037Y004215D01*
X021037Y003846D02*
X021271Y003846D01*
X019683Y004043D02*
X019683Y004751D01*
X021154Y004951D02*
X021154Y005185D01*
X021212Y005688D02*
X021212Y005863D01*
X021154Y005921D01*
X021037Y005921D01*
X020979Y005863D01*
X020979Y005688D01*
X021329Y005688D01*
X021212Y005805D02*
X021329Y005921D01*
X021329Y006173D02*
X021096Y006056D01*
X021096Y006290D02*
X021329Y006173D01*
X021329Y006424D02*
X021096Y006424D01*
X020979Y006541D01*
X021096Y006658D01*
X021329Y006658D01*
X021154Y006658D02*
X021154Y006424D01*
X019132Y005460D02*
X018896Y005460D01*
X017649Y005369D02*
X017382Y005369D01*
X017382Y005570D01*
X017449Y005636D01*
X017649Y005636D01*
X018896Y003334D02*
X019132Y003334D01*
X005200Y006745D02*
X005200Y007769D01*
X003468Y007769D01*
X003468Y006745D01*
X005200Y006745D01*
D12*
X005400Y007227D02*
X005627Y007227D01*
X005684Y007284D01*
X005684Y007397D01*
X005627Y007454D01*
X005514Y007454D01*
X005514Y007340D01*
X005400Y007227D02*
X005344Y007284D01*
X005344Y007397D01*
X005400Y007454D01*
X006344Y007495D02*
X006571Y007495D01*
X006684Y007609D01*
X006571Y007722D01*
X006344Y007722D01*
X006344Y007354D02*
X006344Y007127D01*
X006514Y007127D01*
X006457Y007240D01*
X006457Y007297D01*
X006514Y007354D01*
X006627Y007354D01*
X006684Y007297D01*
X006684Y007184D01*
X006627Y007127D01*
X007344Y007184D02*
X007400Y007127D01*
X007344Y007184D02*
X007344Y007297D01*
X007400Y007354D01*
X007457Y007354D01*
X007684Y007127D01*
X007684Y007354D01*
X007684Y007495D02*
X007627Y007495D01*
X007400Y007722D01*
X007344Y007722D01*
X007344Y007495D01*
X008344Y007297D02*
X008344Y007184D01*
X008400Y007127D01*
X008344Y007297D02*
X008400Y007354D01*
X008457Y007354D01*
X008684Y007127D01*
X008684Y007354D01*
X008627Y007495D02*
X008684Y007552D01*
X008684Y007665D01*
X008627Y007722D01*
X008571Y007722D01*
X008514Y007665D01*
X008514Y007495D01*
X008627Y007495D01*
X008514Y007495D02*
X008400Y007609D01*
X008344Y007722D01*
X009344Y007722D02*
X009344Y007495D01*
X009514Y007495D01*
X009457Y007609D01*
X009457Y007665D01*
X009514Y007722D01*
X009627Y007722D01*
X009684Y007665D01*
X009684Y007552D01*
X009627Y007495D01*
X009684Y007354D02*
X009684Y007127D01*
X009457Y007354D01*
X009400Y007354D01*
X009344Y007297D01*
X009344Y007184D01*
X009400Y007127D01*
X010344Y007184D02*
X010400Y007127D01*
X010344Y007184D02*
X010344Y007297D01*
X010400Y007354D01*
X010457Y007354D01*
X010684Y007127D01*
X010684Y007354D01*
X010514Y007495D02*
X010514Y007722D01*
X010684Y007665D02*
X010344Y007665D01*
X010514Y007495D01*
X011344Y007536D02*
X011400Y007479D01*
X011344Y007536D02*
X011344Y007650D01*
X011400Y007706D01*
X011457Y007706D01*
X011514Y007650D01*
X011571Y007706D01*
X011627Y007706D01*
X011684Y007650D01*
X011684Y007536D01*
X011627Y007479D01*
X011627Y007352D02*
X011684Y007352D01*
X011684Y007295D01*
X011627Y007295D01*
X011627Y007352D01*
X011514Y007593D02*
X011514Y007650D01*
X012344Y007397D02*
X012344Y007284D01*
X012400Y007227D01*
X012627Y007227D01*
X012684Y007284D01*
X012684Y007397D01*
X012627Y007454D01*
X012514Y007454D01*
X012514Y007340D01*
X012400Y007454D02*
X012344Y007397D01*
X011684Y007097D02*
X011684Y006984D01*
X011627Y006927D01*
X011514Y007040D02*
X011514Y007097D01*
X011571Y007154D01*
X011627Y007154D01*
X011684Y007097D01*
X011514Y007097D02*
X011457Y007154D01*
X011400Y007154D01*
X011344Y007097D01*
X011344Y006984D01*
X011400Y006927D01*
X013344Y007184D02*
X013400Y007127D01*
X013344Y007184D02*
X013344Y007297D01*
X013400Y007354D01*
X013457Y007354D01*
X013684Y007127D01*
X013684Y007354D01*
X013627Y007495D02*
X013684Y007552D01*
X013684Y007665D01*
X013627Y007722D01*
X013571Y007722D01*
X013514Y007665D01*
X013514Y007609D01*
X013514Y007665D02*
X013457Y007722D01*
X013400Y007722D01*
X013344Y007665D01*
X013344Y007552D01*
X013400Y007495D01*
X014344Y007552D02*
X014400Y007495D01*
X014344Y007552D02*
X014344Y007665D01*
X014400Y007722D01*
X014457Y007722D01*
X014684Y007495D01*
X014684Y007722D01*
X015344Y007609D02*
X015684Y007609D01*
X015684Y007722D02*
X015684Y007495D01*
X015684Y007354D02*
X015684Y007127D01*
X015457Y007354D01*
X015400Y007354D01*
X015344Y007297D01*
X015344Y007184D01*
X015400Y007127D01*
X015457Y007495D02*
X015344Y007609D01*
X014684Y007354D02*
X014684Y007127D01*
X014457Y007354D01*
X014400Y007354D01*
X014344Y007297D01*
X014344Y007184D01*
X014400Y007127D01*
X014514Y006377D02*
X012640Y004503D01*
X012640Y004291D01*
X014514Y002417D01*
X016494Y004397D01*
X014514Y006377D01*
X016344Y007184D02*
X016400Y007127D01*
X016344Y007184D02*
X016344Y007297D01*
X016400Y007354D01*
X016457Y007354D01*
X016684Y007127D01*
X016684Y007354D01*
X016627Y007495D02*
X016400Y007722D01*
X016627Y007722D01*
X016684Y007665D01*
X016684Y007552D01*
X016627Y007495D01*
X016400Y007495D01*
X016344Y007552D01*
X016344Y007665D01*
X016400Y007722D01*
X017344Y007722D02*
X017344Y007495D01*
X017400Y007722D02*
X017627Y007495D01*
X017684Y007495D01*
X017684Y007354D02*
X017684Y007127D01*
X017684Y007240D02*
X017344Y007240D01*
X017457Y007127D01*
X018344Y007240D02*
X018684Y007240D01*
X018684Y007127D02*
X018684Y007354D01*
X018627Y007495D02*
X018514Y007495D01*
X018514Y007665D01*
X018571Y007722D01*
X018627Y007722D01*
X018684Y007665D01*
X018684Y007552D01*
X018627Y007495D01*
X018514Y007495D02*
X018400Y007609D01*
X018344Y007722D01*
X017400Y007722D02*
X017344Y007722D01*
X018344Y007240D02*
X018457Y007127D01*
X019344Y007240D02*
X019457Y007127D01*
X019344Y007240D02*
X019684Y007240D01*
X019684Y007127D02*
X019684Y007354D01*
X019627Y007495D02*
X019684Y007552D01*
X019684Y007665D01*
X019627Y007722D01*
X019514Y007722D01*
X019457Y007665D01*
X019457Y007609D01*
X019514Y007495D01*
X019344Y007495D01*
X019344Y007722D01*
X020344Y007665D02*
X020514Y007495D01*
X020514Y007722D01*
X020684Y007665D02*
X020344Y007665D01*
X020684Y007354D02*
X020684Y007127D01*
X020684Y007240D02*
X020344Y007240D01*
X020457Y007127D01*
X012817Y004397D02*
X012819Y004420D01*
X012825Y004443D01*
X012834Y004464D01*
X012847Y004484D01*
X012863Y004501D01*
X012881Y004515D01*
X012901Y004526D01*
X012923Y004534D01*
X012946Y004538D01*
X012970Y004538D01*
X012993Y004534D01*
X013015Y004526D01*
X013035Y004515D01*
X013053Y004501D01*
X013069Y004484D01*
X013082Y004464D01*
X013091Y004443D01*
X013097Y004420D01*
X013099Y004397D01*
X013097Y004374D01*
X013091Y004351D01*
X013082Y004330D01*
X013069Y004310D01*
X013053Y004293D01*
X013035Y004279D01*
X013015Y004268D01*
X012993Y004260D01*
X012970Y004256D01*
X012946Y004256D01*
X012923Y004260D01*
X012901Y004268D01*
X012881Y004279D01*
X012863Y004293D01*
X012847Y004310D01*
X012834Y004330D01*
X012825Y004351D01*
X012819Y004374D01*
X012817Y004397D01*
X009514Y004147D02*
X009514Y002647D01*
X009264Y002397D01*
X008764Y002397D01*
X008514Y002647D01*
X008514Y004147D01*
X008764Y004397D01*
X009264Y004397D01*
X009514Y004147D01*
X008514Y004147D02*
X008264Y004397D01*
X007764Y004397D01*
X007514Y004147D01*
X007514Y002647D01*
X007764Y002397D01*
X008264Y002397D01*
X008514Y002647D01*
X007514Y002647D02*
X007264Y002397D01*
X006764Y002397D01*
X006514Y002647D01*
X006514Y004147D01*
X006764Y004397D01*
X007264Y004397D01*
X007514Y004147D01*
X006514Y004147D02*
X006264Y004397D01*
X005764Y004397D01*
X005514Y004147D01*
X005514Y002647D01*
X005764Y002397D01*
X006264Y002397D01*
X006514Y002647D01*
X005514Y002647D02*
X005264Y002397D01*
X004764Y002397D01*
X004514Y002647D01*
X004514Y004147D01*
X004764Y004397D01*
X005264Y004397D01*
X005514Y004147D01*
X006400Y001906D02*
X006457Y001906D01*
X006514Y001850D01*
X006571Y001906D01*
X006627Y001906D01*
X006684Y001850D01*
X006684Y001736D01*
X006627Y001679D01*
X006514Y001793D02*
X006514Y001850D01*
X006400Y001906D02*
X006344Y001850D01*
X006344Y001736D01*
X006400Y001679D01*
X006627Y001552D02*
X006684Y001552D01*
X006684Y001495D01*
X006627Y001495D01*
X006627Y001552D01*
X006627Y001354D02*
X006684Y001297D01*
X006684Y001184D01*
X006627Y001127D01*
X006400Y001127D02*
X006344Y001184D01*
X006344Y001297D01*
X006400Y001354D01*
X006457Y001354D01*
X006514Y001297D01*
X006571Y001354D01*
X006627Y001354D01*
X006514Y001297D02*
X006514Y001240D01*
X007344Y001384D02*
X007344Y001497D01*
X007400Y001554D01*
X007514Y001554D02*
X007514Y001440D01*
X007514Y001554D02*
X007627Y001554D01*
X007684Y001497D01*
X007684Y001384D01*
X007627Y001327D01*
X007400Y001327D01*
X007344Y001384D01*
X008344Y001384D02*
X008344Y001497D01*
X008400Y001554D01*
X008457Y001554D01*
X008514Y001497D01*
X008571Y001554D01*
X008627Y001554D01*
X008684Y001497D01*
X008684Y001384D01*
X008627Y001327D01*
X008514Y001440D02*
X008514Y001497D01*
X008400Y001327D02*
X008344Y001384D01*
X009344Y001497D02*
X009514Y001327D01*
X009514Y001554D01*
X009684Y001497D02*
X009344Y001497D01*
X010344Y001554D02*
X010344Y001327D01*
X010514Y001327D01*
X010457Y001440D01*
X010457Y001497D01*
X010514Y001554D01*
X010627Y001554D01*
X010684Y001497D01*
X010684Y001384D01*
X010627Y001327D01*
X011344Y001554D02*
X011400Y001440D01*
X011514Y001327D01*
X011514Y001497D01*
X011571Y001554D01*
X011627Y001554D01*
X011684Y001497D01*
X011684Y001384D01*
X011627Y001327D01*
X011514Y001327D01*
X012344Y001327D02*
X012344Y001554D01*
X012400Y001554D01*
X012627Y001327D01*
X012684Y001327D01*
X013344Y001384D02*
X013344Y001497D01*
X013400Y001554D01*
X013457Y001554D01*
X013514Y001497D01*
X013514Y001384D01*
X013457Y001327D01*
X013400Y001327D01*
X013344Y001384D01*
X013514Y001384D02*
X013571Y001327D01*
X013627Y001327D01*
X013684Y001384D01*
X013684Y001497D01*
X013627Y001554D01*
X013571Y001554D01*
X013514Y001497D01*
X014324Y001477D02*
X014324Y001364D01*
X014380Y001307D01*
X014607Y001307D01*
X014664Y001364D01*
X014664Y001477D01*
X014607Y001534D01*
X014494Y001534D01*
X014494Y001420D01*
X014380Y001534D02*
X014324Y001477D01*
X015344Y001297D02*
X015344Y001184D01*
X015400Y001127D01*
X015627Y001127D02*
X015684Y001184D01*
X015684Y001297D01*
X015627Y001354D01*
X015571Y001354D01*
X015514Y001297D01*
X015514Y001240D01*
X015514Y001297D02*
X015457Y001354D01*
X015400Y001354D01*
X015344Y001297D01*
X015627Y001495D02*
X015627Y001552D01*
X015684Y001552D01*
X015684Y001495D01*
X015627Y001495D01*
X015627Y001679D02*
X015684Y001736D01*
X015684Y001850D01*
X015627Y001906D01*
X015571Y001906D01*
X015514Y001850D01*
X015514Y001793D01*
X015514Y001850D02*
X015457Y001906D01*
X015400Y001906D01*
X015344Y001850D01*
X015344Y001736D01*
X015400Y001679D01*
X016344Y001397D02*
X016344Y001284D01*
X016400Y001227D01*
X016457Y001227D01*
X016514Y001284D01*
X016514Y001454D01*
X016627Y001454D02*
X016400Y001454D01*
X016344Y001397D01*
X016627Y001454D02*
X016684Y001397D01*
X016684Y001284D01*
X016627Y001227D01*
X017344Y001240D02*
X017457Y001127D01*
X017684Y001127D02*
X017684Y001354D01*
X017684Y001240D02*
X017344Y001240D01*
X017400Y001495D02*
X017344Y001552D01*
X017344Y001665D01*
X017400Y001722D01*
X017627Y001495D01*
X017684Y001552D01*
X017684Y001665D01*
X017627Y001722D01*
X017400Y001722D01*
X017400Y001495D02*
X017627Y001495D01*
X018344Y001609D02*
X018684Y001609D01*
X018684Y001722D02*
X018684Y001495D01*
X018457Y001495D02*
X018344Y001609D01*
X018684Y001354D02*
X018684Y001127D01*
X018457Y001127D02*
X018344Y001240D01*
X018684Y001240D01*
X019344Y001240D02*
X019457Y001127D01*
X019684Y001127D02*
X019684Y001354D01*
X019684Y001240D02*
X019344Y001240D01*
X019400Y001495D02*
X019344Y001552D01*
X019344Y001665D01*
X019400Y001722D01*
X019457Y001722D01*
X019684Y001495D01*
X019684Y001722D01*
X020344Y001665D02*
X020344Y001552D01*
X020400Y001495D01*
X020514Y001609D02*
X020514Y001665D01*
X020571Y001722D01*
X020627Y001722D01*
X020684Y001665D01*
X020684Y001552D01*
X020627Y001495D01*
X020684Y001354D02*
X020684Y001127D01*
X020457Y001127D02*
X020344Y001240D01*
X020684Y001240D01*
X020514Y001665D02*
X020457Y001722D01*
X020400Y001722D01*
X020344Y001665D01*
X005584Y001497D02*
X005584Y001384D01*
X005527Y001327D01*
X005300Y001327D01*
X005244Y001384D01*
X005244Y001497D01*
X005300Y001554D01*
X005414Y001554D02*
X005414Y001440D01*
X005414Y001554D02*
X005527Y001554D01*
X005584Y001497D01*
D13*
X012081Y005154D02*
X012252Y004983D01*
X012321Y004983D01*
X012389Y005051D01*
X012389Y005119D01*
X012218Y005291D01*
X012358Y005294D02*
X012358Y005430D01*
X012563Y005225D01*
X012495Y005157D02*
X012632Y005294D01*
X020218Y003028D02*
X020460Y003028D01*
X020508Y002980D01*
X020508Y002883D01*
X020460Y002835D01*
X020218Y002835D01*
X020218Y002733D02*
X020218Y002540D01*
X020508Y002540D01*
X020363Y002540D02*
X020363Y002637D01*
X020267Y002439D02*
X020218Y002390D01*
X020218Y002245D01*
X020508Y002245D01*
X020508Y002390D01*
X020460Y002439D01*
X020267Y002439D01*
D14*
X001964Y001647D02*
X001964Y001187D01*
X002117Y001340D02*
X002271Y001187D01*
X002424Y001264D02*
X002501Y001187D01*
X002655Y001187D01*
X002731Y001264D01*
X002731Y001340D01*
X002655Y001417D01*
X002578Y001417D01*
X002655Y001417D02*
X002731Y001494D01*
X002731Y001571D01*
X002655Y001647D01*
X002501Y001647D01*
X002424Y001571D01*
X002271Y001571D02*
X002271Y001417D01*
X002194Y001340D01*
X001964Y001340D01*
X002194Y001647D02*
X002271Y001571D01*
X002194Y001647D02*
X001964Y001647D01*
X009674Y002549D02*
X009674Y002702D01*
X009674Y002626D02*
X010057Y002626D01*
X010134Y002549D01*
X010134Y002472D01*
X010057Y002395D01*
X009674Y002856D02*
X009674Y003163D01*
X009827Y003316D02*
X009674Y003470D01*
X009827Y003623D01*
X010134Y003623D01*
X009904Y003623D02*
X009904Y003316D01*
X009827Y003316D02*
X010134Y003316D01*
X010134Y003009D02*
X009674Y003009D01*
X010643Y002954D02*
X010720Y002877D01*
X010873Y002877D01*
X010950Y002954D01*
X011104Y002954D02*
X011180Y002877D01*
X011334Y002877D01*
X011411Y002954D01*
X011411Y003030D01*
X011334Y003107D01*
X011257Y003107D01*
X011334Y003107D02*
X011411Y003184D01*
X011411Y003261D01*
X011334Y003337D01*
X011180Y003337D01*
X011104Y003261D01*
X010950Y003261D02*
X010873Y003337D01*
X010720Y003337D01*
X010643Y003261D01*
X010643Y002954D01*
X010643Y003427D02*
X010643Y003887D01*
X010873Y003887D01*
X010950Y003811D01*
X010950Y003657D01*
X010873Y003580D01*
X010643Y003580D01*
X010797Y003580D02*
X010950Y003427D01*
X011104Y003427D02*
X011411Y003734D01*
X011411Y003811D01*
X011334Y003887D01*
X011180Y003887D01*
X011104Y003811D01*
X011104Y003427D02*
X011411Y003427D01*
X010134Y003853D02*
X010134Y004007D01*
X010057Y004083D01*
X009904Y004083D01*
X009904Y003930D01*
X010057Y003777D02*
X009750Y003777D01*
X009674Y003853D01*
X009674Y004007D01*
X009750Y004083D01*
X010057Y003777D02*
X010134Y003853D01*
X010144Y004687D02*
X010451Y004687D01*
X010297Y004687D02*
X010297Y005147D01*
X010144Y004994D01*
X009990Y005071D02*
X009990Y004917D01*
X009913Y004840D01*
X009683Y004840D01*
X009837Y004840D02*
X009990Y004687D01*
X009683Y004687D02*
X009683Y005147D01*
X009913Y005147D01*
X009990Y005071D01*
X009377Y005707D02*
X009070Y005707D01*
X008994Y005784D01*
X008994Y005937D01*
X009070Y006014D01*
X009070Y006167D02*
X008994Y006244D01*
X008994Y006398D01*
X009070Y006474D01*
X009147Y006474D01*
X009454Y006167D01*
X009454Y006474D01*
X009377Y006014D02*
X009454Y005937D01*
X009454Y005784D01*
X009377Y005707D01*
X011014Y005864D02*
X011090Y005787D01*
X011397Y005787D01*
X011474Y005864D01*
X011474Y006017D01*
X011397Y006094D01*
X011090Y006094D02*
X011014Y006017D01*
X011014Y005864D01*
X011167Y006247D02*
X011014Y006401D01*
X011474Y006401D01*
X011474Y006554D02*
X011474Y006247D01*
X007571Y005231D02*
X007571Y005154D01*
X007264Y004847D01*
X007571Y004847D01*
X007111Y004924D02*
X007034Y004847D01*
X006881Y004847D01*
X006804Y004924D01*
X006804Y005307D01*
X007111Y005307D02*
X007111Y004924D01*
X007264Y005231D02*
X007341Y005307D01*
X007495Y005307D01*
X007571Y005231D01*
X006314Y005724D02*
X006314Y005877D01*
X006237Y005954D01*
X006237Y006107D02*
X006314Y006184D01*
X006314Y006338D01*
X006237Y006414D01*
X006084Y006414D01*
X006007Y006338D01*
X006007Y006261D01*
X006084Y006107D01*
X005854Y006107D01*
X005854Y006414D01*
X005318Y006227D02*
X005318Y005767D01*
X005471Y005767D02*
X005164Y005767D01*
X005011Y005767D02*
X004704Y005767D01*
X004704Y006227D01*
X004594Y006186D02*
X004594Y006647D01*
X004747Y006647D02*
X004440Y006647D01*
X004287Y006570D02*
X004210Y006647D01*
X004057Y006647D01*
X003980Y006570D01*
X003980Y006493D01*
X004057Y006417D01*
X004210Y006417D01*
X004287Y006340D01*
X004287Y006263D01*
X004210Y006186D01*
X004057Y006186D01*
X003980Y006263D01*
X003827Y006186D02*
X003673Y006340D01*
X003750Y006340D02*
X003520Y006340D01*
X003750Y006340D02*
X003827Y006417D01*
X003827Y006570D01*
X003750Y006647D01*
X003520Y006647D01*
X003520Y006186D01*
X002951Y006337D02*
X002644Y006337D01*
X002874Y006567D01*
X002874Y006107D01*
X002490Y006107D02*
X002337Y006260D01*
X002413Y006260D02*
X002183Y006260D01*
X002413Y006260D02*
X002490Y006337D01*
X002490Y006491D01*
X002413Y006567D01*
X002183Y006567D01*
X002183Y006107D01*
X005164Y006074D02*
X005318Y006227D01*
X005854Y005877D02*
X005930Y005954D01*
X005854Y005877D02*
X005854Y005724D01*
X005930Y005647D01*
X006237Y005647D01*
X006314Y005724D01*
X016321Y002671D02*
X016321Y002562D01*
X016430Y002454D01*
X016538Y002454D01*
X016755Y002454D02*
X016972Y002237D01*
X016755Y002128D02*
X017081Y002454D01*
X016755Y002454D01*
X016755Y002671D02*
X016755Y002779D01*
X016647Y002888D01*
X016538Y002888D01*
X016321Y002671D01*
X019534Y005843D02*
X019610Y005766D01*
X019917Y005766D01*
X019994Y005843D01*
X019994Y005996D01*
X019917Y006073D01*
X019610Y006073D02*
X019534Y005996D01*
X019534Y005843D01*
X019534Y006227D02*
X019534Y006534D01*
X019610Y006534D01*
X019917Y006227D01*
X019994Y006227D01*
D15*
X019959Y004149D02*
X019959Y004049D01*
X019959Y004002D02*
X019909Y003952D01*
X019934Y003902D02*
X019834Y003902D01*
X019809Y003927D01*
X019809Y003977D01*
X019834Y004002D01*
X019934Y004002D01*
X019959Y003977D01*
X019959Y003927D01*
X019934Y003902D01*
X019859Y004049D02*
X019809Y004099D01*
X019959Y004099D01*
X003099Y007190D02*
X002949Y007190D01*
X002949Y007265D01*
X002974Y007290D01*
X003024Y007290D01*
X003049Y007265D01*
X003049Y007190D01*
X003099Y007337D02*
X002949Y007337D01*
X003049Y007387D02*
X003099Y007437D01*
X002949Y007437D01*
X002949Y007485D02*
X002949Y007560D01*
X002974Y007585D01*
X003024Y007585D01*
X003049Y007560D01*
X003049Y007485D01*
X003049Y007535D02*
X003099Y007585D01*
X003099Y007485D02*
X002949Y007485D01*
X003049Y007387D02*
X003099Y007337D01*
X001201Y004332D02*
X001151Y004332D01*
X001126Y004307D01*
X001079Y004332D02*
X000979Y004182D01*
X001079Y004182D02*
X000979Y004332D01*
X001126Y004182D02*
X001226Y004282D01*
X001226Y004307D01*
X001201Y004332D01*
X001226Y004182D02*
X001126Y004182D01*
D16*
X007014Y002897D03*
M02*
