G75*
G70*
%OFA0B0*%
%FSLAX24Y24*%
%IPPOS*%
%LPD*%
%AMOC8*
5,1,8,0,0,1.08239X$1,22.5*
%
%ADD10R,0.0400X0.0120*%
%ADD11R,0.0120X0.0400*%
%ADD12R,0.0394X0.0433*%
%ADD13R,0.0433X0.0394*%
%ADD14R,0.0512X0.0591*%
%ADD15R,0.0512X0.0630*%
%ADD16R,0.0984X0.0197*%
%ADD17R,0.0984X0.0787*%
%ADD18R,0.0551X0.0394*%
%ADD19R,0.0315X0.0669*%
%ADD20R,0.0472X0.0551*%
D10*
G36*
X012752Y004106D02*
X012471Y003825D01*
X012386Y003910D01*
X012667Y004191D01*
X012752Y004106D01*
G37*
G36*
X012894Y003965D02*
X012613Y003684D01*
X012528Y003769D01*
X012809Y004050D01*
X012894Y003965D01*
G37*
G36*
X013035Y003823D02*
X012754Y003542D01*
X012669Y003627D01*
X012950Y003908D01*
X013035Y003823D01*
G37*
G36*
X013177Y003682D02*
X012896Y003401D01*
X012811Y003486D01*
X013092Y003767D01*
X013177Y003682D01*
G37*
G36*
X013318Y003540D02*
X013037Y003259D01*
X012952Y003344D01*
X013233Y003625D01*
X013318Y003540D01*
G37*
G36*
X013460Y003399D02*
X013179Y003118D01*
X013094Y003203D01*
X013375Y003484D01*
X013460Y003399D01*
G37*
G36*
X013601Y003258D02*
X013320Y002977D01*
X013235Y003062D01*
X013516Y003343D01*
X013601Y003258D01*
G37*
G36*
X013742Y003116D02*
X013461Y002835D01*
X013376Y002920D01*
X013657Y003201D01*
X013742Y003116D01*
G37*
G36*
X013884Y002975D02*
X013603Y002694D01*
X013518Y002779D01*
X013799Y003060D01*
X013884Y002975D01*
G37*
G36*
X014025Y002833D02*
X013744Y002552D01*
X013659Y002637D01*
X013940Y002918D01*
X014025Y002833D01*
G37*
G36*
X014167Y002692D02*
X013886Y002411D01*
X013801Y002496D01*
X014082Y002777D01*
X014167Y002692D01*
G37*
G36*
X014308Y002550D02*
X014027Y002269D01*
X013942Y002354D01*
X014223Y002635D01*
X014308Y002550D01*
G37*
G36*
X016642Y004884D02*
X016361Y004603D01*
X016276Y004688D01*
X016557Y004969D01*
X016642Y004884D01*
G37*
G36*
X016500Y005025D02*
X016219Y004744D01*
X016134Y004829D01*
X016415Y005110D01*
X016500Y005025D01*
G37*
G36*
X016359Y005167D02*
X016078Y004886D01*
X015993Y004971D01*
X016274Y005252D01*
X016359Y005167D01*
G37*
G36*
X016217Y005308D02*
X015936Y005027D01*
X015851Y005112D01*
X016132Y005393D01*
X016217Y005308D01*
G37*
G36*
X016076Y005450D02*
X015795Y005169D01*
X015710Y005254D01*
X015991Y005535D01*
X016076Y005450D01*
G37*
G36*
X015934Y005591D02*
X015653Y005310D01*
X015568Y005395D01*
X015849Y005676D01*
X015934Y005591D01*
G37*
G36*
X015793Y005732D02*
X015512Y005451D01*
X015427Y005536D01*
X015708Y005817D01*
X015793Y005732D01*
G37*
G36*
X015652Y005874D02*
X015371Y005593D01*
X015286Y005678D01*
X015567Y005959D01*
X015652Y005874D01*
G37*
G36*
X015510Y006015D02*
X015229Y005734D01*
X015144Y005819D01*
X015425Y006100D01*
X015510Y006015D01*
G37*
G36*
X015369Y006157D02*
X015088Y005876D01*
X015003Y005961D01*
X015284Y006242D01*
X015369Y006157D01*
G37*
G36*
X015227Y006298D02*
X014946Y006017D01*
X014861Y006102D01*
X015142Y006383D01*
X015227Y006298D01*
G37*
G36*
X015086Y006440D02*
X014805Y006159D01*
X014720Y006244D01*
X015001Y006525D01*
X015086Y006440D01*
G37*
D11*
G36*
X014308Y006244D02*
X014223Y006159D01*
X013942Y006440D01*
X014027Y006525D01*
X014308Y006244D01*
G37*
G36*
X014167Y006102D02*
X014082Y006017D01*
X013801Y006298D01*
X013886Y006383D01*
X014167Y006102D01*
G37*
G36*
X014025Y005961D02*
X013940Y005876D01*
X013659Y006157D01*
X013744Y006242D01*
X014025Y005961D01*
G37*
G36*
X013884Y005819D02*
X013799Y005734D01*
X013518Y006015D01*
X013603Y006100D01*
X013884Y005819D01*
G37*
G36*
X013742Y005678D02*
X013657Y005593D01*
X013376Y005874D01*
X013461Y005959D01*
X013742Y005678D01*
G37*
G36*
X013601Y005536D02*
X013516Y005451D01*
X013235Y005732D01*
X013320Y005817D01*
X013601Y005536D01*
G37*
G36*
X013460Y005395D02*
X013375Y005310D01*
X013094Y005591D01*
X013179Y005676D01*
X013460Y005395D01*
G37*
G36*
X013318Y005254D02*
X013233Y005169D01*
X012952Y005450D01*
X013037Y005535D01*
X013318Y005254D01*
G37*
G36*
X013177Y005112D02*
X013092Y005027D01*
X012811Y005308D01*
X012896Y005393D01*
X013177Y005112D01*
G37*
G36*
X013035Y004971D02*
X012950Y004886D01*
X012669Y005167D01*
X012754Y005252D01*
X013035Y004971D01*
G37*
G36*
X012894Y004829D02*
X012809Y004744D01*
X012528Y005025D01*
X012613Y005110D01*
X012894Y004829D01*
G37*
G36*
X012752Y004688D02*
X012667Y004603D01*
X012386Y004884D01*
X012471Y004969D01*
X012752Y004688D01*
G37*
G36*
X016076Y003344D02*
X015991Y003259D01*
X015710Y003540D01*
X015795Y003625D01*
X016076Y003344D01*
G37*
G36*
X016217Y003486D02*
X016132Y003401D01*
X015851Y003682D01*
X015936Y003767D01*
X016217Y003486D01*
G37*
G36*
X015934Y003203D02*
X015849Y003118D01*
X015568Y003399D01*
X015653Y003484D01*
X015934Y003203D01*
G37*
G36*
X015793Y003062D02*
X015708Y002977D01*
X015427Y003258D01*
X015512Y003343D01*
X015793Y003062D01*
G37*
G36*
X015652Y002920D02*
X015567Y002835D01*
X015286Y003116D01*
X015371Y003201D01*
X015652Y002920D01*
G37*
G36*
X015510Y002779D02*
X015425Y002694D01*
X015144Y002975D01*
X015229Y003060D01*
X015510Y002779D01*
G37*
G36*
X015369Y002637D02*
X015284Y002552D01*
X015003Y002833D01*
X015088Y002918D01*
X015369Y002637D01*
G37*
G36*
X015227Y002496D02*
X015142Y002411D01*
X014861Y002692D01*
X014946Y002777D01*
X015227Y002496D01*
G37*
G36*
X015086Y002354D02*
X015001Y002269D01*
X014720Y002550D01*
X014805Y002635D01*
X015086Y002354D01*
G37*
G36*
X016359Y003627D02*
X016274Y003542D01*
X015993Y003823D01*
X016078Y003908D01*
X016359Y003627D01*
G37*
G36*
X016500Y003769D02*
X016415Y003684D01*
X016134Y003965D01*
X016219Y004050D01*
X016500Y003769D01*
G37*
G36*
X016642Y003910D02*
X016557Y003825D01*
X016276Y004106D01*
X016361Y004191D01*
X016642Y003910D01*
G37*
D12*
X020514Y003662D03*
X020514Y004332D03*
X020514Y005562D03*
X020514Y006232D03*
X010574Y006372D03*
X009774Y006372D03*
X009774Y005702D03*
X010574Y005702D03*
X006634Y005642D03*
X006634Y006312D03*
D13*
X010779Y004937D03*
X011449Y004937D03*
X011449Y004177D03*
X010779Y004177D03*
X010659Y002557D03*
X011329Y002557D03*
G36*
X016050Y002102D02*
X015745Y002407D01*
X016024Y002686D01*
X016329Y002381D01*
X016050Y002102D01*
G37*
G36*
X016524Y001628D02*
X016219Y001933D01*
X016498Y002212D01*
X016803Y001907D01*
X016524Y001628D01*
G37*
X005449Y001857D03*
X004779Y001857D03*
X001809Y006457D03*
X001139Y006457D03*
X014399Y006837D03*
X015069Y006837D03*
D14*
X005408Y005397D03*
X004660Y005397D03*
D15*
X018561Y005145D03*
X019467Y005145D03*
X019467Y003649D03*
X018561Y003649D03*
D16*
X003458Y003677D03*
X003458Y003992D03*
X003458Y004307D03*
X003458Y003362D03*
X003458Y003047D03*
D17*
X001293Y001905D03*
X003458Y001905D03*
X003458Y005449D03*
X001293Y005449D03*
D18*
X007581Y005737D03*
X008447Y005363D03*
X008447Y006111D03*
D19*
X005003Y007257D03*
X003665Y007257D03*
X018525Y002617D03*
X019863Y002617D03*
D20*
X002405Y007337D03*
X001223Y007337D03*
M02*
